<svg xmlns="http://www.w3.org/2000/svg" viewBox="0 0 557.26 361.75"><defs><style>.cls-1,.cls-10,.cls-11,.cls-12,.cls-13,.cls-14,.cls-17,.cls-23,.cls-27,.cls-9{fill:none;stroke-miterlimit:10;}.cls-1,.cls-10{stroke:#cb9700;}.cls-2{font-size:16.52px;fill:#bdcdc3;font-family:BeVietnam-Regular, BeVietnam Regular;}.cls-3{letter-spacing:-0.01em;}.cls-4{letter-spacing:0em;}.cls-5{letter-spacing:0.01em;}.cls-6{letter-spacing:0em;}.cls-7{letter-spacing:-0.01em;}.cls-8{letter-spacing:-0.01em;}.cls-9{stroke:#968f84;}.cls-10,.cls-11,.cls-12,.cls-13,.cls-14{stroke-width:80px;}.cls-11,.cls-27{stroke:#d1ccbd;}.cls-12{stroke:#9e968d;}.cls-13{stroke:#bdcdc3;}.cls-14,.cls-17{stroke:#93d500;}.cls-15{font-size:16px;}.cls-15,.cls-16{fill:#1d1934;font-family:FlamaCondensed-Medium, FlamaCondensed Medium;font-weight:500;}.cls-16{font-size:15.74px;}.cls-18{letter-spacing:-0.01em;}.cls-19{letter-spacing:0.01em;}.cls-20{letter-spacing:0em;}.cls-21{letter-spacing:0em;}.cls-22{letter-spacing:0em;}.cls-23{stroke:#b5c6bb;}.cls-24{letter-spacing:0em;}.cls-25{letter-spacing:-0.01em;}.cls-26{letter-spacing:-0.05em;}.cls-28{letter-spacing:0.01em;}</style></defs><title>Asset 3</title><g id="Layer_2" data-name="Layer 2"><g id="Layer_1-2" data-name="Layer 1"><polyline class="cls-1" points="505.26 224.09 505.26 268.57 439.12 310.64"/><circle class="cls-1" cx="505.26" cy="172.69" r="51.5"/><text class="cls-2" transform="translate(243.13 44.42)"><tspan class="cls-3">C<tspan class="cls-4" x="9.47" y="0">anaan</tspan></tspan><tspan class="cls-5"><tspan x="5.32" y="18.03">S</tspan><tspan class="cls-4" x="13.56" y="18.03">outh</tspan></tspan><tspan class="cls-6" x="13.01" y="36.06">L</tspan><tspan class="cls-7" x="20.74" y="36.06">t</tspan><tspan class="cls-8" x="26.11" y="36.06">d</tspan><tspan x="35.26" y="36.06">.</tspan></text><circle class="cls-9" cx="268.98" cy="55.28" r="51.5"/><line class="cls-9" x1="268.98" y1="106.98" x2="268.98" y2="198.7"/><path class="cls-10" d="M400.69,266.52a161.3,161.3,0,0,1,30.93,95.23"/><path class="cls-11" d="M319.69,207.64a162.32,162.32,0,0,1,81,58.88"/><path class="cls-12" d="M219.55,207.64a162.82,162.82,0,0,1,100.14,0"/><path class="cls-13" d="M138.55,266.52a162.32,162.32,0,0,1,81-58.88"/><path class="cls-14" d="M107.62,361.75a161.3,161.3,0,0,1,30.93-95.23"/><text class="cls-15" transform="translate(418.4 278.81) rotate(62.06) scale(0.93 1)">T</text><text class="cls-15" transform="translate(421.67 284.87) rotate(64.87) scale(0.93 1)">O</text><text class="cls-15" transform="matrix(0.35, 0.87, -0.93, 0.37, 425.96, 294.03)">U</text><text class="cls-15" transform="matrix(0.3, 0.88, -0.95, 0.32, 429.49, 302.89)">R</text><text class="cls-15" transform="translate(432.02 310.4) rotate(73.07) scale(0.93 1)">I</text><text class="cls-15" transform="matrix(0.24, 0.9, -0.97, 0.26, 433.07, 313.74)">S</text><text class="cls-15" transform="translate(435.01 320.67) rotate(78.12) scale(0.93 1)">M</text><text class="cls-15" transform="translate(437.36 332.32) rotate(80.65) scale(0.93 1)"> </text><text class="cls-15" transform="translate(437.91 335.35) rotate(82.67) scale(0.93 1)">&amp;</text><text class="cls-15" transform="translate(331.37 202.95) rotate(22.94) scale(0.93 1)">D</text><text class="cls-15" transform="matrix(0.84, 0.41, -0.44, 0.9, 340.21, 206.69)">A</text><text class="cls-15" transform="translate(348.3 210.7) rotate(28.16) scale(0.93 1)">I</text><text class="cls-15" transform="matrix(0.81, 0.47, -0.5, 0.87, 351.39, 212.31)">R</text><text class="cls-15" transform="translate(358.09 216.19) rotate(32.7) scale(0.93 1)">Y</text><text class="cls-15" transform="matrix(0.77, 0.53, -0.57, 0.82, 364.78, 220.53)"> </text><text class="cls-15" transform="translate(367.35 222.23) rotate(36.57) scale(0.93 1)">&amp;</text><text class="cls-15" transform="matrix(0.73, 0.58, -0.62, 0.78, 374.49, 227.6)"> </text><text class="cls-15" transform="translate(376.93 229.49) rotate(40.3) scale(0.93 1)">F</text><text class="cls-15" transform="matrix(0.68, 0.64, -0.68, 0.73, 382.39, 234.08)">O</text><text class="cls-15" transform="matrix(0.64, 0.68, -0.73, 0.69, 389.79, 241.01)">O</text><text class="cls-15" transform="matrix(0.6, 0.71, -0.77, 0.64, 396.74, 248.36)">D</text><text class="cls-15" transform="translate(248.49 192.72) rotate(-5.52) scale(0.93 1)">A</text><text class="cls-15" transform="translate(257.22 191.86) rotate(-2.51) scale(0.93 1)">G</text><text class="cls-15" transform="translate(266.73 191.46) rotate(0.37) scale(0.93 1)">R</text><text class="cls-15" transform="translate(274.65 191.48) rotate(3.37) scale(0.93 1)">O</text><text class="cls-15" transform="translate(284.81 192.14) rotate(5.82) scale(0.93 1)">-</text><text class="cls-15" transform="translate(137.25 254.48) rotate(-48.94) scale(0.93 1)">M</text><text class="cls-15" transform="translate(144.96 245.69) rotate(-45.51) scale(0.93 1)">A</text><text class="cls-15" transform="translate(151.24 239.27) rotate(-42.39) scale(0.93 1)">N</text><text class="cls-15" transform="matrix(0.72, -0.59, 0.63, 0.78, 158.4, 232.74)">U</text><text class="cls-15" transform="matrix(0.75, -0.55, 0.59, 0.8, 165.78, 226.76)">F</text><text class="cls-15" transform="matrix(0.77, -0.52, 0.56, 0.83, 170.59, 223.15)">A</text><text class="cls-15" transform="translate(177.86 218.24) rotate(-31.19) scale(0.93 1)">C</text><text class="cls-15" transform="translate(185.52 213.62) rotate(-28.39) scale(0.93 1)">T</text><text class="cls-15" transform="translate(191.92 210.13) rotate(-25.55) scale(0.93 1)">U</text><text class="cls-15" transform="translate(200.52 206.04) rotate(-22.61) scale(0.93 1)">R</text><text class="cls-15" transform="translate(207.85 203.02) rotate(-20.67) scale(0.93 1)">I</text><text class="cls-15" transform="translate(99.48 354.01) rotate(-86.1) scale(0.93 1)">R</text><text class="cls-15" transform="translate(100.03 346.1) rotate(-83.56) scale(0.93 1)">E</text><text class="cls-15" transform="matrix(0.15, -0.92, 0.99, 0.16, 100.81, 338.93)">A</text><text class="cls-15" transform="matrix(0.19, -0.91, 0.98, 0.21, 102.26, 330.06)">L</text><text class="cls-15" transform="translate(103.72 323.23) rotate(-76.44) scale(0.93 1)"> </text><text class="cls-15" transform="translate(104.42 320.22) rotate(-74.69) scale(0.93 1)">E</text><text class="cls-15" transform="translate(106.32 313.24) rotate(-72.23) scale(0.93 1)">S</text><text class="cls-15" transform="translate(108.52 306.37) rotate(-69.77) scale(0.93 1)">T</text><text class="cls-15" transform="translate(110.62 300.54) rotate(-67.39) scale(0.93 1)">A</text><text class="cls-15" transform="translate(113.64 293.26) rotate(-65.01) scale(0.93 1)">T</text><text class="cls-15" transform="matrix(0.43, -0.83, 0.89, 0.46, 116.73, 286.64)">E</text><text class="cls-15" transform="translate(120.1 280.23) rotate(-60.81) scale(0.93 1)"> </text><text class="cls-15" transform="matrix(0.48, -0.8, 0.86, 0.52, 121.56, 277.5)">&amp;</text><text class="cls-16" transform="matrix(0.47, 0.81, -0.86, 0.5, 400.4, 280.25)">H</text><text class="cls-16" transform="matrix(0.42, 0.83, -0.89, 0.45, 405.15, 288.36)">O</text><text class="cls-16" transform="translate(409.58 297.3) rotate(66.58) scale(0.93 1)">S</text><text class="cls-16" transform="translate(412.41 303.8) rotate(69.35) scale(0.93 1)">P</text><text class="cls-16" transform="translate(415.1 311.03) rotate(71.44) scale(0.93 1)">I</text><text class="cls-16" transform="translate(416.22 314.28) rotate(73.44) scale(0.93 1)">T</text><text class="cls-16" transform="matrix(0.23, 0.9, -0.97, 0.24, 418, 320.09)">A</text><text class="cls-16" transform="translate(420.11 328.67) rotate(78.96) scale(0.93 1)">L</text><text class="cls-16" transform="translate(421.39 335.39) rotate(80.88) scale(0.93 1)">I</text><text class="cls-16" transform="translate(421.97 338.75) rotate(82.85) scale(0.93 1)">T</text><text class="cls-16" transform="translate(422.91 346.28) rotate(85.79) scale(0.93 1)">Y</text><text class="cls-15" transform="translate(327.58 219.03) rotate(23.56) scale(0.93 1)">P</text><text class="cls-15" transform="translate(334.72 222.14) rotate(26.49) scale(0.93 1)">R</text><text class="cls-15" transform="translate(341.82 225.63) rotate(29.86) scale(0.93 1)">O</text><text class="cls-15" transform="translate(350.59 230.7) rotate(33.33) scale(0.93 1)">C</text><text class="cls-15" transform="translate(357.71 235.39) rotate(36.25) scale(0.93 1)">E</text><text class="cls-15" transform="translate(363.53 239.66) rotate(38.93) scale(0.93 1)">S</text><text class="cls-15" transform="matrix(0.7, 0.62, -0.66, 0.75, 369.16, 244.2)">S</text><text class="cls-15" transform="translate(374.57 249.05) rotate(43.6) scale(0.93 1)">I</text><text class="cls-15" transform="matrix(0.65, 0.67, -0.72, 0.69, 377.12, 251.39)">N</text><text class="cls-15" transform="translate(383.82 258.33) rotate(49.57) scale(0.93 1)">G</text><text class="cls-16" transform="translate(232.93 212.25) rotate(-12.34) scale(0.93 1)">P</text><text class="cls-16" transform="translate(240.45 210.6) rotate(-9.45) scale(0.93 1)">R</text><text class="cls-16" transform="translate(248.11 209.29) rotate(-6.14) scale(0.93 1)">O</text><text class="cls-16" transform="translate(258 208.24) rotate(-2.76) scale(0.93 1)">C</text><text class="cls-16" transform="matrix(0.93, 0, 0, 1, 266.38, 207.85)">E</text><text class="cls-16" transform="translate(273.5 207.86) rotate(2.69) scale(0.93 1)">S</text><text class="cls-16" transform="translate(280.6 208.19) rotate(5.31) scale(0.93 1)">S</text><text class="cls-16" transform="translate(287.71 208.88) rotate(7.28) scale(0.93 1)">I</text><text class="cls-16" transform="translate(291.09 209.25) rotate(9.69) scale(0.93 1)">N</text><text class="cls-16" transform="translate(300.45 210.84) rotate(13.2) scale(0.93 1)">G</text><text class="cls-16" transform="translate(115.92 357.94) rotate(-87.06) scale(0.93 1)">C</text><text class="cls-16" transform="translate(116.3 349.89) rotate(-83.79) scale(0.93 1)">O</text><text class="cls-16" transform="matrix(0.16, -0.92, 0.99, 0.17, 117.38, 339.99)">N</text><text class="cls-16" transform="matrix(0.21, -0.91, 0.97, 0.22, 119.03, 330.63)">S</text><text class="cls-16" transform="translate(120.62 323.71) rotate(-74.38) scale(0.93 1)">T</text><text class="cls-16" transform="translate(122.54 316.79) rotate(-71.58) scale(0.93 1)">R</text><text class="cls-16" transform="translate(124.96 309.43) rotate(-68.37) scale(0.93 1)">U</text><text class="cls-16" transform="translate(128.42 300.75) rotate(-65.05) scale(0.93 1)">C</text><text class="cls-16" transform="translate(132.14 292.81) rotate(-62) scale(0.93 1)">T</text><text class="cls-16" transform="matrix(0.47, -0.81, 0.87, 0.5, 135.55, 286.45)">I</text><text class="cls-16" transform="translate(137.19 283.47) rotate(-57.52) scale(0.93 1)">O</text><polyline class="cls-17" points="50.16 250.5 50.16 271.81 81.5 311.99"/><text class="cls-2" transform="translate(26.4 36.2)"><tspan class="cls-18">L</tspan><tspan x="7.57" y="0">ehem</tspan><tspan class="cls-19" x="-5.07" y="18.03">I</tspan><tspan class="cls-20" x="-0.96" y="18.03">n</tspan><tspan class="cls-7" x="8.14" y="18.03">t</tspan><tspan x="13.51" y="18.03">e</tspan><tspan class="cls-21" x="21.79" y="18.03">r</tspan><tspan x="27.26" y="18.03">iors</tspan><tspan class="cls-6" x="10.7" y="36.06">L</tspan><tspan class="cls-7" x="18.43" y="36.06">t</tspan><tspan class="cls-8" x="23.8" y="36.06">d</tspan><tspan x="32.95" y="36.06">.</tspan></text><text class="cls-2" transform="translate(24.09 189.14)"><tspan class="cls-3">C<tspan class="cls-4" x="9.47" y="0">anaan</tspan></tspan><tspan class="cls-22" x="-13.15" y="18.03">D</tspan><tspan x="-2.08" y="18.03">e</tspan><tspan class="cls-8" x="6.19" y="18.03">v</tspan><tspan x="13.98" y="18.03">elopers</tspan><tspan class="cls-6" x="13.01" y="36.06">L</tspan><tspan class="cls-7" x="20.74" y="36.06">t</tspan><tspan class="cls-8" x="26.11" y="36.06">d</tspan><tspan x="35.26" y="36.06">.</tspan></text><circle class="cls-17" cx="49.93" cy="200.19" r="49.43" transform="translate(-126.93 93.94) rotate(-45)"/><circle class="cls-17" cx="49.93" cy="49.93" r="49.43" transform="translate(-20.68 49.93) rotate(-45)"/><line class="cls-17" x1="49.93" y1="150.76" x2="49.93" y2="99.37"/><line class="cls-23" x1="153.61" y1="165.4" x2="153.61" y2="206.56"/><text class="cls-2" transform="translate(127.02 101.27)"><tspan class="cls-3">C<tspan class="cls-4" x="9.47" y="0">anaan</tspan></tspan><tspan class="cls-24"><tspan x="0.65" y="18.03">P</tspan><tspan class="cls-4" x="9.36" y="18.03">lastics</tspan></tspan><tspan class="cls-6" x="13.01" y="36.06">L</tspan><tspan class="cls-7" x="20.74" y="36.06">t</tspan><tspan class="cls-8" x="26.11" y="36.06">d</tspan><tspan x="35.26" y="36.06">.</tspan></text><circle class="cls-23" cx="152.91" cy="111.85" r="53.54" transform="translate(14.16 240.85) rotate(-79.1)"/><text class="cls-2" transform="translate(486.52 161.82)"><tspan class="cls-21">R</tspan><tspan class="cls-25" x="8.95" y="0">o</tspan><tspan class="cls-20" x="17.91" y="0">y</tspan><tspan x="25.62" y="0">al</tspan><tspan class="cls-26" x="1.88" y="18.03">T</tspan><tspan x="9.34" y="18.03">ulip</tspan><tspan x="0.05" y="36.06">Ho</tspan><tspan class="cls-7" x="19.89" y="36.06">t</tspan><tspan x="25.26" y="36.06">el</tspan></text><polyline class="cls-27" points="416.16 121.47 416.16 155.18 382.3 203.69"/><text class="cls-2" transform="translate(390.31 58.91)"><tspan class="cls-3">C<tspan class="cls-4" x="9.47" y="0">anaan</tspan></tspan><tspan class="cls-26" x="-4.89" y="18.03">F</tspan><tspan class="cls-4" x="2.41" y="18.03">a</tspan><tspan class="cls-28" x="10.37" y="18.03">c</tspan><tspan class="cls-7" x="17.99" y="18.03">t</tspan><tspan x="23.36" y="18.03">o</tspan><tspan class="cls-21" x="32.43" y="18.03">r</tspan><tspan x="37.9" y="18.03">ies</tspan><tspan class="cls-6" x="13.01" y="36.06">L</tspan><tspan class="cls-7" x="20.74" y="36.06">t</tspan><tspan class="cls-8" x="26.11" y="36.06">d</tspan><tspan x="35.26" y="36.06">.</tspan></text><circle class="cls-27" cx="416.16" cy="69.78" r="51.5"/></g></g></svg>