<svg xmlns="http://www.w3.org/2000/svg" viewBox="0 0 126.18 80"><defs><style>.cls-1{fill:#12143c;}.cls-2{fill:#fff;}.cls-3{font-size:12px;font-family:MyriadPro-Regular, Myriad Pro;}</style></defs><title>Logo</title><g id="Layer_2" data-name="Layer 2"><g id="Layer_1-2" data-name="Layer 1"><polygon class="cls-1" points="30.68 74.44 31.4 74.44 31.4 79.35 33.75 79.35 33.75 79.95 30.68 79.95 30.68 74.44 30.68 74.44"/><polygon class="cls-1" points="41.39 79.95 40.68 79.95 40.68 74.44 41.39 74.44 41.39 79.95 41.39 79.95"/><path class="cls-1" d="M53.42,77.53c0-.77-.09-1.69-.08-2.38h0c-.19.64-.42,1.33-.69,2.09l-1,2.68H51.1l-.89-2.63c-.26-.78-.48-1.49-.64-2.14h0c0,.69-.06,1.61-.11,2.44L49.3,80h-.68L49,74.44h.91l.94,2.66c.23.68.41,1.29.55,1.86h0c.14-.56.33-1.16.58-1.86l1-2.66h.91L54.25,80h-.69l-.14-2.42Z"/><polygon class="cls-1" points="62.19 79.95 61.48 79.95 61.48 74.44 62.19 74.44 62.19 79.95 62.19 79.95"/><polygon class="cls-1" points="70.62 75.04 68.94 75.04 68.94 74.44 73.02 74.44 73.02 75.04 71.34 75.04 71.34 79.95 70.62 79.95 70.62 75.04 70.62 75.04"/><polygon class="cls-1" points="82.63 77.36 80.48 77.36 80.48 79.35 82.87 79.35 82.87 79.95 79.77 79.95 79.77 74.44 82.75 74.44 82.75 75.03 80.48 75.03 80.48 76.78 82.63 76.78 82.63 77.36 82.63 77.36"/><path class="cls-1" d="M90.64,79.39a4.84,4.84,0,0,0,.72,0,2.12,2.12,0,0,0,2.35-2.34A2,2,0,0,0,91.47,75a4.19,4.19,0,0,0-.83.07v4.36Zm-.71-4.88a9.62,9.62,0,0,1,1.51-.11,3.19,3.19,0,0,1,2.24.68,2.54,2.54,0,0,1,.77,2,3,3,0,0,1-.79,2.15,3.44,3.44,0,0,1-2.44.79,9.52,9.52,0,0,1-1.29-.07V74.51Z"/><path class="cls-1" d="M9.42,64.34a3.63,3.63,0,0,0-3.64-3.06,3.67,3.67,0,0,0-2.49,1c-.64.63-1.37,1.69-1.37,4.07,0,3.51,2,5,4.05,5a5.19,5.19,0,0,0,3.74-1.67l.3.29A5.46,5.46,0,0,1,5.53,72C2.86,72,0,70.45,0,66.33a5.48,5.48,0,0,1,5.63-5.71,13.5,13.5,0,0,1,2.91.54.74.74,0,0,0,.76-.54h.35l.15,3.72Z"/><path class="cls-1" d="M14.87,69.27l-1.14-2.72-1.14,2.72Zm2.56,2.53H14.91v-.18c.37,0,.69,0,.69-.38a2.21,2.21,0,0,0-.18-.62l-.41-1H12.42L12,70.83a1,1,0,0,0-.08.37c0,.42.46.42.67.42v.18h-2v-.18a.67.67,0,0,0,.51-.22,7,7,0,0,0,.72-1.4l2.05-4.85h.2l2.46,5.61c.32.72.46.83.89.86v.18Z"/><path class="cls-1" d="M24.51,65.45c-.62.07-.94.11-.94,1.27v5.19H23.4L19.05,66.5h0v3.85c0,1,.21,1.24.93,1.27v.18H17.64v-.18c.75-.05,1-.2,1-1.27V66c-.41-.49-.56-.54-1-.54v-.19h1.69L23.11,70h0v-3.3c0-1.14-.27-1.22-.94-1.27v-.19h2.32v.19Z"/><path class="cls-1" d="M28.66,69.27l-1.15-2.72-1.13,2.72Zm2.56,2.53H28.7v-.18c.36,0,.69,0,.69-.38a2.23,2.23,0,0,0-.19-.62l-.4-1H26.21l-.46,1.16a1,1,0,0,0-.08.37c0,.42.47.42.68.42v.18h-2v-.18a.64.64,0,0,0,.5-.22,7,7,0,0,0,.73-1.4l2.05-4.85h.2l2.46,5.61c.31.72.45.83.89.86v.18Z"/><path class="cls-1" d="M35.72,69.27l-1.14-2.72-1.14,2.72Zm2.56,2.53H35.76v-.18c.37,0,.7,0,.7-.38a2.23,2.23,0,0,0-.19-.62l-.41-1H33.27l-.45,1.16a1,1,0,0,0-.08.37c0,.42.47.42.67.42v.18H31.46v-.18a.67.67,0,0,0,.5-.22,7,7,0,0,0,.72-1.4l2.06-4.85h.19l2.46,5.61c.32.72.46.83.89.86v.18Z"/><path class="cls-1" d="M45.36,65.45c-.62.07-.94.11-.94,1.27v5.19h-.17L39.91,66.5h0v3.85c0,1,.2,1.24.92,1.27v.18H38.49v-.18c.75-.05,1-.2,1-1.27V66c-.4-.49-.56-.54-1-.54v-.19h1.69L44,70h0v-3.3c0-1.14-.27-1.22-.94-1.27v-.19h2.32v.19Z"/><path class="cls-1" d="M50.89,71.8H45.56v-.18c.63,0,.86-.13.86-.89V66.34c0-.78-.24-.84-.86-.89v-.19H50.8l0,1.42h-.24c-.15-.88-.41-1-1.5-1H47.75c-.21,0-.33,0-.33.33v2.2H49c.88,0,1-.24,1.08-.94h.23v2.29H50c-.12-.79-.26-.93-1.08-.94l-1.53,0V71c0,.41,0,.42,1.48.42,1.23,0,1.73-.3,2.16-1.3h.28l-.45,1.67Z"/><path class="cls-1" d="M55.82,69.27l-1.14-2.72-1.14,2.72Zm2.56,2.53H55.86v-.18c.37,0,.69,0,.69-.38a2.21,2.21,0,0,0-.18-.62l-.41-1H53.37l-.45,1.16a1,1,0,0,0-.08.37c0,.42.47.42.67.42v.18H51.56v-.18a.67.67,0,0,0,.5-.22,7,7,0,0,0,.72-1.4l2.06-4.85H55l2.46,5.61c.32.72.46.83.89.86v.18Z"/><path class="cls-1" d="M63.11,67.23h-.25A2,2,0,0,0,61,65.53a.93.93,0,0,0-1,.92c0,1.48,3.3,1.68,3.3,3.7a1.89,1.89,0,0,1-2.09,1.79,8.24,8.24,0,0,1-1.53-.33.3.3,0,0,0-.31.32h-.21l-.3-2.09h.23c.18.46.69,1.75,2,1.75a1.11,1.11,0,0,0,1.19-1.1c0-.56-.16-.9-1.61-1.75-.91-.52-1.54-1-1.54-1.94A1.66,1.66,0,0,1,61,65.13a8,8,0,0,1,1.38.33.34.34,0,0,0,.34-.33h.21l.22,2.1Z"/><path class="cls-1" d="M68.36,71.8H65.48v-.18c.9,0,.93-.27.93-1V65.68h-.53c-1.09,0-1.36.19-1.58,1.26h-.23l.06-1.68H69.7l.06,1.68h-.24c-.21-1.08-.48-1.26-1.57-1.26h-.53v5c0,.67.12.86.94.89v.18Z"/><path class="cls-1" d="M83.77,64.34a3.65,3.65,0,0,0-6.12-2.05c-.65.63-1.38,1.69-1.38,4.07,0,3.51,2,5,4.06,5a5.23,5.23,0,0,0,3.74-1.67l.29.29A5.46,5.46,0,0,1,79.88,72c-2.67,0-5.53-1.59-5.53-5.71A5.48,5.48,0,0,1,80,60.62a13.36,13.36,0,0,1,2.91.54.74.74,0,0,0,.76-.54H84l.15,3.72Z"/><path class="cls-1" d="M90.48,68.53c0-2.25-1.1-3-2.1-3s-2.11.8-2.11,3,1,3.06,2.11,3.06,2.1-.88,2.1-3.06m-5.33,0a3.23,3.23,0,1,1,3.23,3.4,3.2,3.2,0,0,1-3.23-3.4"/><path class="cls-1" d="M100.4,65.45c-.62,0-.86.11-.86.89v4.39c0,.76.23.85.86.89v.18H97.63v-.18c.78,0,.9-.19.9-1V66.18h0L96,71.8h-.13l-2.46-5.39h0v3.94c0,1,.2,1.24.93,1.27v.18H92v-.18c.75-.05,1-.2,1-1.27v-4c0-.77-.21-.85-.94-.89v-.19h2l2.28,5,2.19-5h2v.19Z"/><path class="cls-1" d="M102.59,68.53a5.41,5.41,0,0,0,.59,0,1.46,1.46,0,0,0,1.69-1.5c0-1.41-1.44-1.43-1.88-1.43-.29,0-.4,0-.4.33v2.57Zm-1.84-3.27h2.61c1.36,0,2.59.53,2.59,1.78a1.75,1.75,0,0,1-.61,1.34,2.87,2.87,0,0,1-2.09.58c-.24,0-.43,0-.66,0v1.8c0,.72.16.87.93.89v.18h-2.77v-.18c.83-.06.83-.29.83-1V66.34c0-.7-.11-.82-.83-.89v-.19Z"/><path class="cls-1" d="M109.52,69.27l-1.14-2.72-1.14,2.72Zm2.56,2.53h-2.52v-.18c.37,0,.69,0,.69-.38a2.21,2.21,0,0,0-.18-.62l-.41-1h-2.59l-.45,1.16a1,1,0,0,0-.08.37c0,.42.46.42.67.42v.18h-1.95v-.18a.67.67,0,0,0,.5-.22,7,7,0,0,0,.72-1.4l2.06-4.85h.19l2.46,5.61c.32.72.46.83.89.86v.18Z"/><path class="cls-1" d="M119.16,65.45c-.62.07-.94.11-.94,1.27v5.19h-.17L113.7,66.5h0v3.85c0,1,.21,1.24.93,1.27v.18h-2.32v-.18c.75-.05,1-.2,1-1.27V66c-.41-.49-.56-.54-1-.54v-.19H114L117.76,70h0v-3.3c0-1.14-.27-1.22-.94-1.27v-.19h2.32v.19Z"/><path class="cls-1" d="M126.18,65.45c-.35,0-.68.08-1.36,1.13l-1.46,2.23v1.92c0,.71.13.88,1,.89v.18h-3v-.18c1,0,1-.25,1-1V68.9L121.06,67c-1-1.48-1.16-1.51-1.6-1.55v-.19h2.76v.19c-.45,0-.7,0-.7.31a.91.91,0,0,0,.17.42l1.46,2.2,1.41-2.24a.67.67,0,0,0,.14-.36c0-.31-.37-.33-.68-.33v-.19h2.16v.19Z"/><polygon class="cls-2" points="96.41 31.11 90.52 31.11 90.52 29.7 96.41 29.7 96.41 31.11 96.41 31.11"/><polygon class="cls-2" points="96.41 33.29 90.52 33.29 90.52 31.88 96.41 31.88 96.41 33.29 96.41 33.29"/><polygon class="cls-2" points="96.41 35.47 90.52 35.47 90.52 34.06 96.41 34.06 96.41 35.47 96.41 35.47"/><polygon class="cls-2" points="96.41 37.65 90.52 37.65 90.52 36.23 96.41 36.23 96.41 37.65 96.41 37.65"/><polygon class="cls-2" points="96.41 39.83 90.52 39.83 90.52 38.41 96.41 38.41 96.41 39.83 96.41 39.83"/><polygon class="cls-2" points="96.41 42.01 90.52 42.01 90.52 40.59 96.41 40.59 96.41 42.01 96.41 42.01"/><polygon class="cls-2" points="96.41 44.19 90.52 44.19 90.52 42.77 96.41 42.77 96.41 44.19 96.41 44.19"/><polygon class="cls-2" points="96.41 46.37 90.52 46.37 90.52 44.95 96.41 44.95 96.41 46.37 96.41 46.37"/><polygon class="cls-2" points="96.41 48.55 90.52 48.55 90.52 47.13 96.41 47.13 96.41 48.55 96.41 48.55"/><polygon class="cls-2" points="90.14 42.01 87.25 42.01 87.25 40.59 90.14 40.59 90.14 42.01 90.14 42.01"/><polygon class="cls-2" points="90.14 44.19 87.25 44.19 87.25 42.77 90.14 42.77 90.14 44.19 90.14 44.19"/><polygon class="cls-2" points="90.14 46.37 87.25 46.37 87.25 44.95 90.14 44.95 90.14 46.37 90.14 46.37"/><path class="cls-2" d="M71.89,26.38c.11-.9.19-1.79.32-2.69C73.7,12.75,81.36,3.56,91.71.82A23.44,23.44,0,0,1,98.22,0l.39,0V6.27c-1,0-2.06-.07-3.07,0A16.8,16.8,0,0,0,85.17,11a21.46,21.46,0,0,0-6.7,13.57A22.71,22.71,0,0,0,81.93,40a18.15,18.15,0,0,0,11.44,8.24,17.24,17.24,0,0,0,5.23.31v6.93c-.72,0-1.46,0-2.19,0A25,25,0,0,1,80.2,48.07a27.53,27.53,0,0,1-7.77-14.9c-.23-1.21-.3-2.45-.45-3.68a1.61,1.61,0,0,0-.09-.29V26.38Z"/><path class="cls-2" d="M50.25,26.38c.1-.9.19-1.79.31-2.69C52.05,12.75,59.72,3.56,70.06.82A23.49,23.49,0,0,1,76.57,0L77,0V6.27c-1,0-2.06-.07-3.08,0A16.75,16.75,0,0,0,63.53,11a21.52,21.52,0,0,0-6.71,13.57A22.71,22.71,0,0,0,60.29,40a18.13,18.13,0,0,0,11.43,8.24,17.31,17.31,0,0,0,5.24.31v6.93c-.72,0-1.46,0-2.2,0a25,25,0,0,1-16.2-7.45,27.55,27.55,0,0,1-7.78-14.9c-.22-1.21-.3-2.45-.45-3.68a1.57,1.57,0,0,0-.08-.29V26.38Z"/><path class="cls-2" d="M27.88,26.38c.1-.9.19-1.79.31-2.69C29.68,12.75,37.35,3.56,47.69.82A23.49,23.49,0,0,1,54.2,0l.4,0V6.27c-1,0-2.06-.07-3.08,0A16.75,16.75,0,0,0,41.16,11a21.52,21.52,0,0,0-6.71,13.57A22.76,22.76,0,0,0,37.91,40a18.17,18.17,0,0,0,11.44,8.24,17.31,17.31,0,0,0,5.24.31v6.93c-.72,0-1.46,0-2.2,0a25,25,0,0,1-16.2-7.45,27.55,27.55,0,0,1-7.78-14.9c-.22-1.21-.3-2.45-.45-3.68a1.57,1.57,0,0,0-.08-.29V26.38Z"/><path class="cls-1" d="M36.13,24.52A18.68,18.68,0,0,0,39,26.88a12.49,12.49,0,0,0,5.15,2.4,11.61,11.61,0,0,0,5.74-.6,23.15,23.15,0,0,0,3-1.36A23.62,23.62,0,0,1,62,25.18a10.23,10.23,0,0,1,4.25.43c4.52,1.87,5.21,8.85,5.28,9.65A9.5,9.5,0,0,0,68.31,32a10.37,10.37,0,0,0-4.5-1.31,17.17,17.17,0,0,0-6.44.63c-3.1.88-2.93,1.66-5.58,2.33a14.54,14.54,0,0,1-7,0,11.45,11.45,0,0,1-6.36-3.79,11,11,0,0,1-2.29-5.4"/><path class="cls-1" d="M45.4,32.2h-.94a1,1,0,0,1-1-1V17a1,1,0,0,1,1-1h.94a1,1,0,0,1,1,1V31.24a1,1,0,0,1-1,1"/><text class="cls-3" transform="translate(47.78 16.25) rotate(178.32)">L</text></g></g></svg>