<svg xmlns="http://www.w3.org/2000/svg" xmlns:xlink="http://www.w3.org/1999/xlink" viewBox="0 0 85.78 105.98"><defs><style>.cls-1{fill:none;}.cls-2{fill:#1a1c38;}.cls-3{fill:#13110c;}.cls-4{fill:#b3cb53;}.cls-5{clip-path:url(#clip-path);}.cls-6{fill:#b3cb54;}.cls-7{fill:#7ab335;}.cls-8{fill:#7ea72a;}.cls-9{clip-path:url(#clip-path-2);}.cls-10{fill:#0e0b12;}.cls-11{fill:#1a201d;}.cls-12{fill:#1a2016;}.cls-13{clip-path:url(#clip-path-3);}.cls-14{fill:#1a2018;}.cls-15{fill:#232038;}</style><clipPath id="clip-path"><polyline class="cls-1" points="31.48 86.59 54.79 86.59 54.79 24.07 31.48 24.07 31.48 86.59"/></clipPath><clipPath id="clip-path-2"><polyline class="cls-1" points="49.14 87.28 62.34 87.28 62.34 53.05 49.14 53.05 49.14 87.28"/></clipPath><clipPath id="clip-path-3"><polyline class="cls-1" points="23.43 86.59 40.45 86.59 40.45 45.39 23.43 45.39 23.43 86.59"/></clipPath></defs><title>Asset 1</title><g id="Layer_2" data-name="Layer 2"><g id="Layer_1-2" data-name="Layer 1"><polyline class="cls-2" points="70.43 89.45 15.33 89.45 15.33 86.59 70.43 86.59 70.43 89.45"/><path class="cls-3" d="M7.73,44.76c2.93-3.73,5.89-7.44,8.82-11.16l8.88-11.12c2.95-3.71,5.94-7.39,8.91-11.08L43.26.32,43.52,0l.25.32,8.6,11.11c2.87,3.7,5.75,7.4,8.6,11.12l8.56,11.14c2.83,3.73,5.68,7.44,8.5,11.18-2.93-3.65-5.83-7.32-8.75-11l-8.7-11c-2.91-3.67-5.78-7.37-8.67-11.06L43.26.72h.5l-9,11c-3,3.67-6,7.37-9,11l-9,11c-3,3.65-6,7.32-9.07,11"/><path class="cls-4" d="M35.93,86.59h14V24.07l-14-10.86V86.59"/><g class="cls-5"><path class="cls-6" d="M50.11,62.74q0-17.33,0-34.64l-.24.19V28.1l4.91-4V59l-4.68,3.72m-14.18-8.1-4.45-3.3V43.17l4.45-3.65V54.64"/></g><path class="cls-7" d="M36.17,54.81l-.24-.17V39.52l14-11.42v.19L36.17,39.52V54.81"/><path class="cls-8" d="M50.1,86.59h-14q0-23.53,0-47.07L50.12,28.1q0,29.25,0,58.49"/><g class="cls-9"><path class="cls-2" d="M62.34,86.6H54.79V59l7.55-6V86.6"/><polyline class="cls-10" points="62.34 87.28 49.14 87.28 49.14 86.59 62.34 86.59 62.34 87.28"/></g><path class="cls-11" d="M54.79,86.59H50.1q0-11.93,0-23.85L54.79,59V86.6"/><path class="cls-12" d="M50.1,86.59h-1V63.51c.32-.26.64-.52,1-.77q0,11.92,0,23.85h0"/><g class="cls-13"><path class="cls-2" d="M40.45,86.59h-17V45.39l8.05,6V86.6h9"/></g><path class="cls-11" d="M36.15,86.59H31.48V51.34l4.45,3.3v32h.22"/><path class="cls-14" d="M36.15,86.59h-.22V54.64l.24.17q0,15.89,0,31.78"/><path class="cls-12" d="M40.45,86.59h-4.3q0-15.89,0-31.78L40.45,58V86.59"/><path class="cls-15" d="M0,97.19v0a2.48,2.48,0,0,1,2.62-2.45,2.71,2.71,0,0,1,2,.73l-.71.77a1.87,1.87,0,0,0-1.28-.54,1.45,1.45,0,0,0-1.46,1.48h0a1.44,1.44,0,0,0,1.46,1.49,1.87,1.87,0,0,0,1.32-.55l.7.67a2.65,2.65,0,0,1-2.06.85A2.47,2.47,0,0,1,0,97.19Z"/><path class="cls-15" d="M7.25,94.77h1l2.15,4.77H9.27l-.46-1.06H6.69l-.46,1.06H5.1Zm1.17,2.79L7.75,96l-.67,1.54Z"/><path class="cls-15" d="M11.21,94.8h1l2.36,2.92V94.8h1.09v4.74h-.94l-2.44-3v3H11.21Z"/><path class="cls-15" d="M18.62,94.77h1l2.16,4.77H20.64l-.46-1.06H18.05l-.46,1.06H16.46Zm1.16,2.79L19.12,96l-.67,1.54Z"/><path class="cls-15" d="M24.3,94.77h1l2.16,4.77H26.32l-.46-1.06H23.73l-.46,1.06H22.15Zm1.17,2.79L24.8,96l-.67,1.54Z"/><path class="cls-15" d="M28.26,94.8h1l2.36,2.92V94.8h1.09v4.74h-.94l-2.44-3v3H28.26Z"/><path class="cls-15" d="M36.1,94.8h2a2.45,2.45,0,0,1,2.68,2.36h0a2.46,2.46,0,0,1-2.68,2.37h-2Zm2,3.8a1.39,1.39,0,0,0,1.52-1.41v0a1.41,1.41,0,0,0-1.52-1.43h-.85V98.6Z"/><path class="cls-15" d="M41.72,94.8h3.8v.93h-2.7v1h2.37v.93H42.82v1h2.73v.92H41.72Z"/><path class="cls-15" d="M46.11,94.8h1.22l1.32,3.34L50,94.8h1.2l-2,4.78h-1Z"/><path class="cls-15" d="M51.94,94.8h3.79v.93H53v1h2.37v.93H53v1h2.73v.92H51.94Z"/><path class="cls-15" d="M56.76,94.8h1.1v3.8h2.51v.94H56.76Z"/><path class="cls-15" d="M61,97.19v0a2.68,2.68,0,0,1,5.34,0h0a2.54,2.54,0,0,1-2.68,2.46A2.51,2.51,0,0,1,61,97.19Zm4.19,0v0a1.49,1.49,0,0,0-1.53-1.49,1.47,1.47,0,0,0-1.51,1.48h0a1.48,1.48,0,0,0,1.53,1.49A1.46,1.46,0,0,0,65.18,97.19Z"/><path class="cls-15" d="M67.32,94.8h2.06c1.2,0,1.92.67,1.92,1.64h0c0,1.1-.9,1.67-2,1.67h-.84v1.42H67.32Zm2,2.39c.55,0,.87-.31.87-.72h0c0-.47-.34-.72-.89-.72h-.86v1.45Z"/><path class="cls-15" d="M72.13,94.8h3.79v.93H73.23v1H75.6v.93H73.23v1H76v.92H72.13Z"/><path class="cls-15" d="M77,94.8h2.3a2.09,2.09,0,0,1,1.46.48,1.45,1.45,0,0,1,.43,1.09h0a1.48,1.48,0,0,1-1.08,1.47l1.23,1.69H80L78.92,98h-.87v1.51H77Zm2.22,2.3c.54,0,.85-.27.85-.67h0c0-.45-.33-.68-.87-.68h-1.1V97.1Z"/><path class="cls-15" d="M81.8,98.85l.66-.74a2.32,2.32,0,0,0,1.5.58c.45,0,.72-.17.72-.45h0c0-.27-.17-.4-1-.6-1-.25-1.67-.51-1.67-1.45v0c0-.86.74-1.43,1.76-1.43a3,3,0,0,1,1.87.61l-.57.78a2.49,2.49,0,0,0-1.31-.47c-.43,0-.65.19-.65.42h0c0,.31.22.41,1.09.62s1.59.6,1.59,1.43h0c0,.94-.76,1.47-1.85,1.47A3.29,3.29,0,0,1,81.8,98.85Z"/><path class="cls-15" d="M27.09,102.71h.39v2.93h1.95V106H27.09Z"/><path class="cls-15" d="M32.18,102.71h.39V106h-.39Z"/><path class="cls-15" d="M35.57,102.71H36l1.27,1.78,1.26-1.78h.4V106H38.5v-2.65l-1.27,1.75h0L36,103.34V106h-.38Z"/><path class="cls-15" d="M41.89,102.71h.39V106h-.39Z"/><path class="cls-15" d="M46.2,103.05H45v-.34h2.73v.34H46.59V106H46.2Z"/><path class="cls-15" d="M50.47,102.71H53v.34H50.87v1.11h1.89v.34H50.87v1.14H53V106H50.47Z"/><path class="cls-15" d="M55.78,102.71H57a1.69,1.69,0,0,1,1.85,1.63h0A1.69,1.69,0,0,1,57,106h-1.2Zm1.2,2.93a1.31,1.31,0,0,0,1.44-1.29h0A1.32,1.32,0,0,0,57,103.05h-.81v2.59Z"/></g></g></svg>