<svg xmlns="http://www.w3.org/2000/svg" viewBox="0 0 140.39 66.55"><defs><style>.cls-1{fill:#2c9942;}.cls-2{fill:#80bc00;}.cls-3{fill:#e1251b;}</style></defs><title>canaan-south</title><g id="Layer_2" data-name="Layer 2"><g id="Layer_1-2" data-name="Layer 1"><path class="cls-1" d="M120.25,11.54a18.12,18.12,0,0,0-9.78,4.93C106,15.18,95.32,13,88.27,18.55S79.46,33,79.46,33s3.85-.19,5.25.77c.44-2.62,2-7.29,4.53-10.09,5.67-6.28,16-5.58,19.19-5.19A24.2,24.2,0,0,0,103,32l4.79,1.81s.07-7.1,2.28-11.53a18.38,18.38,0,0,1,10.06-9,4.22,4.22,0,0,0,.59-.25.78.78,0,0,0-.43-1.48"/><path class="cls-2" d="M13.08,23.61a4.24,4.24,0,0,0-3.5,2.28,14.78,14.78,0,0,0-2.12,5.37,30.51,30.51,0,0,0-.61,5.95,26.12,26.12,0,0,0,1.76,9.63,14.66,14.66,0,0,0,1.81,3.4c1.06,1.37,2.13,2.06,3.21,2.06a2.91,2.91,0,0,0,2.31-.92,6.3,6.3,0,0,0,1.23-2.2,21,21,0,0,0,.67-2.49A12.48,12.48,0,0,1,18.28,45c.15-.46.37-.7.66-.7,1.24,0,2.19,1.31,2.85,3.9a9.81,9.81,0,0,1-.52,6c-1.09,2.29-3.15,3.44-6.16,3.44a11.26,11.26,0,0,1-6.87-2.85A20.8,20.8,0,0,1,2.11,46,31.64,31.64,0,0,1,0,34.26a22,22,0,0,1,2.54-11.1,9.85,9.85,0,0,1,9.1-5.26q7.71,0,11.24,9.38a24.49,24.49,0,0,1,1.19,4.57,7.63,7.63,0,0,1,.07,1c0,1.09-.37,1.64-1.11,1.64s-1.51-.58-2-1.76a24.18,24.18,0,0,0-4.21-7c-1.38-1.43-2.62-2.14-3.73-2.14"/><path class="cls-2" d="M45.4,55.87q-4.49,0-6.35-7.67A17.52,17.52,0,0,1,37.51,52a6.61,6.61,0,0,1-6.1,3.85c-3.36,0-5.66-1.65-6.92-4.94a15.71,15.71,0,0,1-.95-5.63,20.46,20.46,0,0,1,1.69-8.07q3.18-7.42,8.86-7.42,2.38,0,4.47,2.88c.39-1.92,1.24-2.88,2.53-2.88a5.94,5.94,0,0,1,3.27,1.05A3,3,0,0,1,46,33.33c0,.7-.17,2.34-.52,4.92a47.79,47.79,0,0,0-.34,6.2,35.73,35.73,0,0,0,.64,7.89c.43,1.76.64,2.72.64,2.91,0,.41-.32.62-1,.62M34.64,51.08q1.86,0,2.9-4.74a22.3,22.3,0,0,0,.5-4.69,22,22,0,0,0-.27-3.38c-.51-3-1.58-4.46-3.26-4.46S31.72,35.35,31,38.44a19.77,19.77,0,0,0-.4,4,18.46,18.46,0,0,0,.45,4.15,9.14,9.14,0,0,0,1.33,3.23,2.6,2.6,0,0,0,2.22,1.27"/><path class="cls-3" d="M93.17,55.87q-4.5,0-6.35-7.67A17.54,17.54,0,0,1,85.27,52a6.61,6.61,0,0,1-6.1,3.85q-5,0-6.92-4.94a15.71,15.71,0,0,1-1-5.63A20.46,20.46,0,0,1,73,37.23q3.18-7.42,8.86-7.42,2.39,0,4.47,2.88c.39-1.92,1.24-2.88,2.53-2.88a5.88,5.88,0,0,1,3.26,1.05,3,3,0,0,1,1.6,2.47c0,.7-.17,2.34-.52,4.92a47.79,47.79,0,0,0-.34,6.2,35.12,35.12,0,0,0,.64,7.89c.43,1.76.64,2.72.64,2.91,0,.41-.32.62-1,.62M82.4,51.08q1.86,0,2.9-4.74a22.3,22.3,0,0,0,.5-4.69,20.84,20.84,0,0,0-.27-3.38c-.5-3-1.59-4.46-3.26-4.46s-2.79,1.54-3.47,4.63a19.08,19.08,0,0,0-.4,4,18.46,18.46,0,0,0,.45,4.15,9.33,9.33,0,0,0,1.33,3.23,2.61,2.61,0,0,0,2.22,1.27"/><path class="cls-3" d="M116.7,55.87q-4.49,0-6.35-7.67A18,18,0,0,1,108.81,52a6.64,6.64,0,0,1-6.11,3.85q-5,0-6.92-4.94a15.71,15.71,0,0,1-.94-5.63,20.45,20.45,0,0,1,1.68-8.07q3.2-7.42,8.87-7.42c1.59,0,3.07,1,4.46,2.88.4-1.92,1.24-2.88,2.53-2.88a5.91,5.91,0,0,1,3.27,1.05,3,3,0,0,1,1.6,2.47c0,.7-.17,2.34-.52,4.92a47.6,47.6,0,0,0-.35,6.2,35.73,35.73,0,0,0,.64,7.89c.43,1.76.65,2.72.65,2.91,0,.41-.32.62-1,.62m-10.77-4.79c1.25,0,2.21-1.58,2.91-4.74a22.29,22.29,0,0,0,.49-4.69,20.84,20.84,0,0,0-.27-3.38c-.49-3-1.58-4.46-3.25-4.46s-2.8,1.54-3.47,4.63a19.08,19.08,0,0,0-.4,4,18.46,18.46,0,0,0,.45,4.15,9.13,9.13,0,0,0,1.32,3.23,2.62,2.62,0,0,0,2.22,1.27"/><path class="cls-2" d="M63.61,56.61c-.69,0-1-.48-1-1.44,0-.8,0-1.94.11-3.38s.11-3.95.11-7.51c0-3.77-.24-6.33-.73-7.66s-1.18-2-2.07-2c-1.24,0-2.42,1.59-3.55,4.74A22.14,22.14,0,0,0,55.15,46c0,.41.07.81.12,1.18.35,2.67.52,4.37.52,5.09a3.07,3.07,0,0,1-1.6,2.55,5.77,5.77,0,0,1-3.26,1.08q-2.11,0-2.65-3.53a41.72,41.72,0,0,1-.43-5.9A42.38,42.38,0,0,1,48.67,38q1.81-9,6.58-9c.64,0,1,.22,1,.65,0,.18-.22,1.17-.65,3A28.81,28.81,0,0,0,55,38c2.13-5.45,5.08-8.17,8.89-8.17q6,0,6,8.61a53.84,53.84,0,0,1-.65,8.49q-1.55,9.71-5.61,9.7"/><path class="cls-2" d="M134.13,56.61c-.69,0-1-.48-1-1.44,0-.8,0-1.94.11-3.38s.11-3.95.11-7.51c0-3.77-.24-6.33-.73-7.66s-1.18-2-2.07-2c-1.24,0-2.42,1.59-3.55,4.74A22.14,22.14,0,0,0,125.67,46c0,.41.07.81.13,1.18.34,2.67.51,4.37.51,5.09a3.07,3.07,0,0,1-1.6,2.55,5.75,5.75,0,0,1-3.26,1.08q-2.1,0-2.66-3.53a43.23,43.23,0,0,1-.41-5.9A42.38,42.38,0,0,1,119.2,38c1.2-6,3.4-9,6.57-9,.65,0,1,.22,1,.65,0,.18-.22,1.17-.65,3a29.7,29.7,0,0,0-.6,5.36q3.18-8.17,8.89-8.17,6,0,6,8.61a53.84,53.84,0,0,1-.65,8.49q-1.53,9.71-5.61,9.7"/><path class="cls-2" d="M109.73,15.17a6.9,6.9,0,0,0-4.27-2.72c-2.36-.3-13.78.89-20.11-8.22a20.29,20.29,0,0,0,2.86-1.85C89.74,1.17,91.29-.27,95.57,0c8.38.59,11.77,11,11.77,11s-5.76-5.79-9.46-7.24a11.12,11.12,0,0,0-8.53,0s5.33-1.3,9.35,1a57.93,57.93,0,0,1,7.83,6,11.13,11.13,0,0,1,3.2,4.32"/><path class="cls-1" d="M24.87,65.44h-1a4.56,4.56,0,0,1-.62,0,1.36,1.36,0,0,1-1-.83A2.68,2.68,0,0,1,22,63.44a2.42,2.42,0,0,1,.32-1.31,1.28,1.28,0,0,1,.64-.56,2.57,2.57,0,0,1,.95-.14h.92a.45.45,0,0,1,.33.1.33.33,0,0,1,.1.25.32.32,0,0,1-.1.25.41.41,0,0,1-.33.11h-.82a1.08,1.08,0,0,0-.85.3,1.49,1.49,0,0,0-.22.92,1.54,1.54,0,0,0,.35,1.18,1.25,1.25,0,0,0,.75.19h.79a.45.45,0,0,1,.33.1.33.33,0,0,1,.1.25.32.32,0,0,1-.1.25.45.45,0,0,1-.33.11"/><path class="cls-1" d="M27.62,63.66a.61.61,0,0,0-.07-.35.41.41,0,0,0-.3-.17H26a.39.39,0,0,1-.29-.1.3.3,0,0,1-.1-.22.28.28,0,0,1,.11-.23.47.47,0,0,1,.28-.08h1a4.21,4.21,0,0,1,.61,0,.85.85,0,0,1,.71.58,1.76,1.76,0,0,1,.1.66V65a.38.38,0,0,1-.19.35.61.61,0,0,1-.3.06H26.73l-.57,0a.71.71,0,0,1-.57-.34.88.88,0,0,1-.15-.51,1,1,0,0,1,.21-.64.86.86,0,0,1,.55-.25l.44,0Zm0,.62h-.93a1.18,1.18,0,0,0-.26,0,.25.25,0,0,0-.17.26.21.21,0,0,0,.13.21.6.6,0,0,0,.3,0h.93Z"/><path class="cls-1" d="M29.69,63.14V65a.39.39,0,0,1-.4.41.38.38,0,0,1-.34-.19.51.51,0,0,1-.07-.3V63a.6.6,0,0,1,0-.25.41.41,0,0,1,.45-.24h1.07a1.87,1.87,0,0,1,.58.07c.39.13.6.49.59,1.06V65a.41.41,0,0,1-.12.3.39.39,0,0,1-.28.11.38.38,0,0,1-.34-.19.61.61,0,0,1-.06-.3V63.54a.43.43,0,0,0-.15-.36.56.56,0,0,0-.26,0Z"/><path class="cls-1" d="M34.1,63.66a.61.61,0,0,0-.07-.35.45.45,0,0,0-.31-.17H32.5a.4.4,0,0,1-.29-.1.29.29,0,0,1-.09-.22.28.28,0,0,1,.1-.23.44.44,0,0,1,.28-.08h1a4.11,4.11,0,0,1,.61,0,.88.88,0,0,1,.72.58,2,2,0,0,1,.09.66V65a.39.39,0,0,1-.18.35.68.68,0,0,1-.31.06H33.2l-.57,0a.71.71,0,0,1-.57-.34.88.88,0,0,1-.16-.51,1,1,0,0,1,.22-.64.86.86,0,0,1,.55-.25l.43,0Zm0,.62h-.94a1,1,0,0,0-.25,0,.25.25,0,0,0-.18.26.21.21,0,0,0,.13.21.6.6,0,0,0,.3,0h.94Z"/><path class="cls-1" d="M37.39,63.66a.6.6,0,0,0-.08-.35.43.43,0,0,0-.3-.17H35.78a.36.36,0,0,1-.28-.1.26.26,0,0,1-.09-.22.28.28,0,0,1,.1-.23.43.43,0,0,1,.27-.08h1a4.21,4.21,0,0,1,.61,0,.85.85,0,0,1,.71.58,1.76,1.76,0,0,1,.1.66V65a.39.39,0,0,1-.19.35.64.64,0,0,1-.3.06H36.48l-.56,0a.75.75,0,0,1-.58-.34.88.88,0,0,1-.15-.51,1,1,0,0,1,.23-.64.79.79,0,0,1,.54-.25l.43,0Zm0,.62h-.94a1.11,1.11,0,0,0-.26,0,.24.24,0,0,0-.17.26.2.2,0,0,0,.12.21.66.66,0,0,0,.31,0h.94Z"/><path class="cls-1" d="M39.44,63.14V65a.4.4,0,0,1-.11.3.43.43,0,0,1-.28.11.38.38,0,0,1-.35-.19.61.61,0,0,1-.06-.3V63a.85.85,0,0,1,0-.25.43.43,0,0,1,.46-.24h1.06a1.79,1.79,0,0,1,.58.07c.4.13.6.49.6,1.06V65a.41.41,0,0,1-.75.22.62.62,0,0,1,0-.3V63.54a.44.44,0,0,0-.16-.36.51.51,0,0,0-.26,0Z"/><path class="cls-1" d="M43.47,64.73h1.4a1.3,1.3,0,0,0,.59-.09.43.43,0,0,0,.21-.39.46.46,0,0,0-.25-.42,1,1,0,0,0-.45-.07h-.75a1.51,1.51,0,0,1-1-.26,1,1,0,0,1-.3-.4,1.38,1.38,0,0,1-.1-.49,1.32,1.32,0,0,1,.25-.78,1.05,1.05,0,0,1,.78-.39H46a.46.46,0,0,1,.34.1.36.36,0,0,1,0,.5.42.42,0,0,1-.34.11H44.59a3,3,0,0,0-.53,0A.45.45,0,0,0,44,63a1.25,1.25,0,0,0,.51.07h.65a2.25,2.25,0,0,1,.73.08.92.92,0,0,1,.59.51,1.59,1.59,0,0,1,.12.62,1.32,1.32,0,0,1-.16.66.94.94,0,0,1-.71.49,4,4,0,0,1-.69,0H43.47a.5.5,0,0,1-.34-.11.36.36,0,0,1-.1-.25.37.37,0,0,1,.1-.25.49.49,0,0,1,.34-.1"/><path class="cls-1" d="M48.3,62.46a1.46,1.46,0,0,1,1.17.47A1.64,1.64,0,0,1,49.83,64a1.45,1.45,0,0,1-.45,1.1,1.59,1.59,0,0,1-1.12.37,1.5,1.5,0,0,1-1.15-.42,1.46,1.46,0,0,1-.39-1.1,1.51,1.51,0,0,1,.37-1,1.48,1.48,0,0,1,1.21-.47m0,.62c-.49,0-.72.31-.72.91a1,1,0,0,0,.12.55.65.65,0,0,0,.61.33c.48,0,.72-.3.72-.91s-.24-.88-.73-.88"/><path class="cls-1" d="M52.05,64.81v-1.9a.38.38,0,0,1,.4-.4.37.37,0,0,1,.34.19.48.48,0,0,1,.06.3v2a.74.74,0,0,1,0,.24.43.43,0,0,1-.46.25H51.27a1.79,1.79,0,0,1-.58-.07,1,1,0,0,1-.6-1.06v-1.4a.4.4,0,0,1,.12-.29.39.39,0,0,1,.28-.11.39.39,0,0,1,.35.19.58.58,0,0,1,0,.3v1.39a.43.43,0,0,0,.11.31.38.38,0,0,0,.29.11Z"/><path class="cls-1" d="M53.55,62.51v-.68a.41.41,0,0,1,.13-.29.34.34,0,0,1,.28-.11.38.38,0,0,1,.34.18.61.61,0,0,1,.06.3v.6h.36a.41.41,0,0,1,.3.09.29.29,0,0,1,.09.22.26.26,0,0,1-.1.23.42.42,0,0,1-.29.09h-.36V64.2a.94.94,0,0,0,.07.47.28.28,0,0,0,.12.1.65.65,0,0,0,.24,0,.33.33,0,0,1,.23.1.29.29,0,0,1,.09.22.28.28,0,0,1-.1.23.48.48,0,0,1-.29.08h-.2a1,1,0,0,1-.71-.22,1,1,0,0,1-.24-.48,3.06,3.06,0,0,1,0-.4v-1.2h-.12a.41.41,0,0,1-.3-.1.31.31,0,0,1,0-.44.41.41,0,0,1,.3-.09Z"/><path class="cls-1" d="M56.17,62.51H57a2,2,0,0,1,.68.09,1,1,0,0,1,.52,1V65a.41.41,0,0,1-.12.3.4.4,0,0,1-.62-.08.51.51,0,0,1-.07-.3V63.77a1.29,1.29,0,0,0,0-.34.37.37,0,0,0-.2-.25.78.78,0,0,0-.34,0h-.66V65a.41.41,0,0,1-.12.3.43.43,0,0,1-.28.11.41.41,0,0,1-.35-.19.61.61,0,0,1-.06-.3v-3a.62.62,0,0,1,0-.18.36.36,0,0,1,.15-.23.4.4,0,0,1,.24-.07.38.38,0,0,1,.34.18.75.75,0,0,1,.06.3Z"/><path class="cls-1" d="M62.49,65.44h-1a4.44,4.44,0,0,1-.62,0,1.39,1.39,0,0,1-1-.83,2.69,2.69,0,0,1-.2-1.13A2.42,2.42,0,0,1,60,62.13a1.3,1.3,0,0,1,.65-.56,2.57,2.57,0,0,1,1-.14h.92a.44.44,0,0,1,.33.1.31.31,0,0,1,.11.25.3.3,0,0,1-.11.25.4.4,0,0,1-.33.11h-.82a1.1,1.1,0,0,0-.85.3,2.11,2.11,0,0,0,.13,2.1,1.24,1.24,0,0,0,.74.19h.8a.44.44,0,0,1,.33.1.31.31,0,0,1,.11.25.3.3,0,0,1-.11.25.44.44,0,0,1-.33.11"/><path class="cls-1" d="M64.59,62.46a1.45,1.45,0,0,1,1.18.47A1.63,1.63,0,0,1,66.12,64a1.4,1.4,0,0,1-.44,1.1,1.59,1.59,0,0,1-1.12.37,1.51,1.51,0,0,1-1.15-.42A1.42,1.42,0,0,1,63,64a1.46,1.46,0,0,1,.37-1,1.5,1.5,0,0,1,1.2-.47m0,.62c-.48,0-.72.31-.72.91a1.13,1.13,0,0,0,.11.55.68.68,0,0,0,.62.33c.48,0,.72-.3.72-.91s-.25-.88-.73-.88"/><path class="cls-1" d="M68.91,63.14V65a.45.45,0,0,1-.12.3.44.44,0,0,1-.29.11.41.41,0,0,1-.35-.19.78.78,0,0,1-.05-.3V63.14h-.87V65a.41.41,0,0,1-.75.22.78.78,0,0,1,0-.3V63a.85.85,0,0,1,0-.25.41.41,0,0,1,.45-.24h2.48a2.52,2.52,0,0,1,.66.07.76.76,0,0,1,.49.51,1.42,1.42,0,0,1,.08.48V65a.41.41,0,0,1-.12.3.4.4,0,0,1-.62-.08.6.6,0,0,1-.07-.3V63.7a1.11,1.11,0,0,0,0-.31c-.05-.17-.2-.25-.46-.25Z"/><path class="cls-1" d="M71.87,65.44v.7a.41.41,0,0,1-.4.41.38.38,0,0,1-.35-.2.71.71,0,0,1-.05-.3V63a.61.61,0,0,1,0-.25.42.42,0,0,1,.46-.24h.91a3.12,3.12,0,0,1,.6,0,1.12,1.12,0,0,1,.41.2,1.31,1.31,0,0,1,.33.37A1.87,1.87,0,0,1,74,64a1.41,1.41,0,0,1-.39,1,1.15,1.15,0,0,1-.55.33,2.11,2.11,0,0,1-.49,0Zm0-2.3v1.67h.49A.86.86,0,0,0,73,64.6a.94.94,0,0,0,.2-.65.83.83,0,0,0-.27-.67.76.76,0,0,0-.5-.14Z"/><path class="cls-1" d="M76.34,63.66a.73.73,0,0,0-.06-.35.48.48,0,0,0-.31-.17H74.75a.4.4,0,0,1-.29-.1.27.27,0,0,1-.1-.22.31.31,0,0,1,.1-.23.5.5,0,0,1,.29-.08h1a4.21,4.21,0,0,1,.61,0,.85.85,0,0,1,.71.58,1.76,1.76,0,0,1,.1.66V65a.39.39,0,0,1-.19.35.67.67,0,0,1-.3.06H75.45l-.57,0a.75.75,0,0,1-.58-.34.88.88,0,0,1-.15-.51,1,1,0,0,1,.22-.64.84.84,0,0,1,.55-.25l.44,0Zm0,.62h-.93a1.11,1.11,0,0,0-.26,0,.24.24,0,0,0-.17.26.21.21,0,0,0,.13.21.6.6,0,0,0,.3,0h.93Z"/><path class="cls-1" d="M78.41,63.14V65a.38.38,0,0,1-.13.3.37.37,0,0,1-.27.11.39.39,0,0,1-.35-.19.61.61,0,0,1-.06-.3V63a.85.85,0,0,1,0-.25.43.43,0,0,1,.46-.24h1.07a1.72,1.72,0,0,1,.57.07c.41.13.61.49.61,1.06V65a.42.42,0,0,1-.13.3.39.39,0,0,1-.28.11.37.37,0,0,1-.34-.19.6.6,0,0,1-.07-.3V63.54a.46.46,0,0,0-.14-.36.61.61,0,0,0-.27,0Z"/><path class="cls-1" d="M82.65,64.81v-1.9a.4.4,0,0,1,.12-.29.37.37,0,0,1,.27-.11.38.38,0,0,1,.35.19.55.55,0,0,1,.07.3v2.38a1,1,0,0,1-.45.94,1.65,1.65,0,0,1-.82.16H81.13a.4.4,0,0,1-.29-.08.35.35,0,0,1-.09-.23.33.33,0,0,1,.1-.24.49.49,0,0,1,.28-.08h1.06a.66.66,0,0,0,.34,0,.25.25,0,0,0,.1-.19,1.11,1.11,0,0,1,0-.17h-.72c-.83,0-1.22-.41-1.18-1.29V62.91a.4.4,0,0,1,.12-.29.39.39,0,0,1,.28-.11.38.38,0,0,1,.35.19.56.56,0,0,1,.06.3v1.07a2.35,2.35,0,0,0,0,.5.35.35,0,0,0,.38.24Z"/><path class="cls-1" d="M86.73,61.43a.41.41,0,0,1,.22.07.37.37,0,0,1,.1.24.36.36,0,0,1-.12.27,1.16,1.16,0,0,1-.28.12,1.05,1.05,0,0,0-.68.71,3.71,3.71,0,0,0-.15,1.22,2.67,2.67,0,0,0,.25,1.31,1.09,1.09,0,0,0,.62.45q.36.09.36.39a.3.3,0,0,1-.11.23.27.27,0,0,1-.2.07,1.78,1.78,0,0,1-.45-.08,2,2,0,0,1-.46-.22A2.47,2.47,0,0,1,85,64a2.82,2.82,0,0,1,.72-2.12,1.62,1.62,0,0,1,.83-.43l.23,0"/><path class="cls-1" d="M90,65.44H89a4.27,4.27,0,0,1-.61,0,1.39,1.39,0,0,1-1.05-.83,2.68,2.68,0,0,1-.21-1.13,2.51,2.51,0,0,1,.31-1.31,1.32,1.32,0,0,1,.66-.56,2.52,2.52,0,0,1,.94-.14H90a.45.45,0,0,1,.33.1.31.31,0,0,1,.11.25.3.3,0,0,1-.11.25.41.41,0,0,1-.33.11h-.82a1.11,1.11,0,0,0-.85.3,1.5,1.5,0,0,0-.21.92,1.54,1.54,0,0,0,.34,1.18,1.25,1.25,0,0,0,.75.19H90a.45.45,0,0,1,.33.1.31.31,0,0,1,.11.25.3.3,0,0,1-.11.25.45.45,0,0,1-.33.11"/><path class="cls-1" d="M92.07,62.46a1.45,1.45,0,0,1,1.18.47A1.64,1.64,0,0,1,93.61,64a1.41,1.41,0,0,1-.45,1.1,1.59,1.59,0,0,1-1.12.37,1.53,1.53,0,0,1-1.16-.42,1.53,1.53,0,0,1,1.19-2.6m0,.62c-.48,0-.72.31-.72.91a1,1,0,0,0,.12.55.65.65,0,0,0,.61.33c.48,0,.72-.3.72-.91s-.25-.88-.73-.88"/><path class="cls-1" d="M96.38,63.14V65a.4.4,0,0,1-.11.3.44.44,0,0,1-.29.11.39.39,0,0,1-.34-.19.61.61,0,0,1-.06-.3V63.14h-.86V65a.38.38,0,0,1-.13.3.39.39,0,0,1-.28.11.42.42,0,0,1-.35-.19.78.78,0,0,1,0-.3V63a.85.85,0,0,1,0-.25.42.42,0,0,1,.46-.24h2.47a2.61,2.61,0,0,1,.67.07.75.75,0,0,1,.48.51,1.41,1.41,0,0,1,.09.48V65a.45.45,0,0,1-.12.3.41.41,0,0,1-.28.11.39.39,0,0,1-.35-.19.61.61,0,0,1-.06-.3V63.7a1.76,1.76,0,0,0,0-.31c-.06-.17-.21-.25-.46-.25Z"/><path class="cls-1" d="M99.26,64.28a.52.52,0,0,0,.21.43.89.89,0,0,0,.5.1h.6a.37.37,0,0,1,.29.1.29.29,0,0,1,.09.22.3.3,0,0,1-.09.23.48.48,0,0,1-.29.08h-.69a1.76,1.76,0,0,1-.62-.08,1,1,0,0,1-.37-.2,1.19,1.19,0,0,1-.29-.31,1.68,1.68,0,0,1-.24-.92,1.53,1.53,0,0,1,.29-.92,1,1,0,0,1,.57-.42,2.08,2.08,0,0,1,.6-.08h.75a.4.4,0,0,1,.29.09.29.29,0,0,1,.09.22.29.29,0,0,1-.09.23.42.42,0,0,1-.29.09h-.69c-.27,0-.45.06-.52.17a.63.63,0,0,0-.1.35h1.31a.4.4,0,0,1,.29.09A.29.29,0,0,1,101,64a.29.29,0,0,1-.09.23.48.48,0,0,1-.29.08Zm1.25-2.6-.34.33a1.1,1.1,0,0,1-.17.13.42.42,0,0,1-.2,0h0a.11.11,0,0,1-.09,0,.1.1,0,0,1,0-.15l.21-.33a.55.55,0,0,1,.17-.17.42.42,0,0,1,.26-.07h.11a.15.15,0,0,1,.16.15.18.18,0,0,1,0,.11"/><path class="cls-1" d="M102.12,63.14V65a.44.44,0,0,1-.11.3.43.43,0,0,1-.28.11.39.39,0,0,1-.35-.19.61.61,0,0,1-.06-.3V63a.85.85,0,0,1,0-.25.43.43,0,0,1,.46-.24h.7a1.93,1.93,0,0,1,.73.1.72.72,0,0,1,.4.62,1.41,1.41,0,0,1,0,.2.42.42,0,0,1-.11.29.36.36,0,0,1-.27.11.42.42,0,0,1-.32-.14.65.65,0,0,1-.09-.26.35.35,0,0,0-.15-.23.65.65,0,0,0-.35-.06Z"/><path class="cls-1" d="M105.94,63.14h-.59a.83.83,0,0,0-.67.21.87.87,0,0,0-.18.62.78.78,0,0,0,.29.69.84.84,0,0,0,.27.13,2,2,0,0,0,.39,0h.49a.38.38,0,0,1,.29.1.29.29,0,0,1,.08.22.3.3,0,0,1-.09.23.47.47,0,0,1-.28.08h-.73a1.77,1.77,0,0,1-.89-.18,1.32,1.32,0,0,1-.48-.51,1.77,1.77,0,0,1-.17-.79,1.43,1.43,0,0,1,.45-1.16,1.22,1.22,0,0,1,.61-.26,3.33,3.33,0,0,1,.48,0h.73a.42.42,0,0,1,.29.09.34.34,0,0,1,0,.45.41.41,0,0,1-.28.09"/><path class="cls-1" d="M107,61.43h0a.36.36,0,0,1,.28.11.38.38,0,0,1,.11.28.39.39,0,0,1-.11.27.36.36,0,0,1-.28.12h0a.39.39,0,0,1-.4-.39.38.38,0,0,1,.4-.39m.4,1.57v2a.87.87,0,0,1,0,.19.44.44,0,0,1-.15.22.35.35,0,0,1-.24.08.38.38,0,0,1-.34-.19.61.61,0,0,1-.06-.3V63a.88.88,0,0,1,0-.2.34.34,0,0,1,.14-.21.43.43,0,0,1,.24-.08.4.4,0,0,1,.35.19.58.58,0,0,1,0,.3"/><path class="cls-1" d="M109.31,62.46a1.44,1.44,0,0,1,1.18.47,1.64,1.64,0,0,1,.36,1.08,1.41,1.41,0,0,1-.45,1.1,1.59,1.59,0,0,1-1.12.37,1.51,1.51,0,0,1-1.15-.42,1.46,1.46,0,0,1-.39-1.1,1.44,1.44,0,0,1,1.57-1.5m0,.62c-.47,0-.71.31-.71.91a1,1,0,0,0,.12.55.66.66,0,0,0,.61.33c.48,0,.72-.3.72-.91s-.24-.88-.74-.88"/><path class="cls-1" d="M115,64.73v-1h-.68a.46.46,0,0,1-.34-.1.37.37,0,0,1-.1-.26.33.33,0,0,1,.1-.25.46.46,0,0,1,.34-.11h1a.81.81,0,0,1,.25,0,.46.46,0,0,1,.24.47V65a.74.74,0,0,1,0,.24.43.43,0,0,1-.46.25H114a2.93,2.93,0,0,1-.87-.11,1.18,1.18,0,0,1-.64-.5,2.42,2.42,0,0,1-.36-1.38,2.55,2.55,0,0,1,.3-1.3,1.29,1.29,0,0,1,.82-.63,3.24,3.24,0,0,1,.79-.09h1.32a.45.45,0,0,1,.33.1.33.33,0,0,1,.1.25.32.32,0,0,1-.1.25.41.41,0,0,1-.33.11h-1.23a1.11,1.11,0,0,0-.77.23,1.38,1.38,0,0,0-.29,1,2.24,2.24,0,0,0,.14.87.64.64,0,0,0,.37.4,1.49,1.49,0,0,0,.59.1Z"/><path class="cls-1" d="M116.91,64.28a.51.51,0,0,0,.23.43.82.82,0,0,0,.48.1h.61a.37.37,0,0,1,.29.1.29.29,0,0,1,.09.22.28.28,0,0,1-.1.23.47.47,0,0,1-.28.08h-.7a1.83,1.83,0,0,1-.62-.08,1.12,1.12,0,0,1-.37-.2,1.33,1.33,0,0,1-.28-.31,1.6,1.6,0,0,1-.24-.92,1.46,1.46,0,0,1,.29-.92,1.07,1.07,0,0,1,.57-.42,2,2,0,0,1,.61-.08h.74a.4.4,0,0,1,.29.09.29.29,0,0,1,.09.22.26.26,0,0,1-.1.23.41.41,0,0,1-.28.09h-.7c-.27,0-.44.06-.51.17a.63.63,0,0,0-.11.35h1.32a.4.4,0,0,1,.29.09.29.29,0,0,1,.09.22.26.26,0,0,1-.1.23.47.47,0,0,1-.28.08Z"/><path class="cls-1" d="M119.78,63.14V65a.41.41,0,0,1-.12.3.39.39,0,0,1-.28.11.38.38,0,0,1-.34-.19A.6.6,0,0,1,119,65V63a.82.82,0,0,1,0-.25.42.42,0,0,1,.46-.24h.7a1.83,1.83,0,0,1,.72.1.75.75,0,0,1,.41.62,1.41,1.41,0,0,1,0,.2.38.38,0,0,1-.12.29.33.33,0,0,1-.26.11.4.4,0,0,1-.32-.14.83.83,0,0,1-.1-.26.32.32,0,0,0-.15-.23.61.61,0,0,0-.35-.06Z"/><path class="cls-1" d="M123.42,63.66a.71.71,0,0,0-.07-.35.48.48,0,0,0-.31-.17h-1.22a.39.39,0,0,1-.29-.1.3.3,0,0,1-.1-.22.31.31,0,0,1,.1-.23.48.48,0,0,1,.29-.08h1a4.21,4.21,0,0,1,.61,0,.89.89,0,0,1,.72.58,2,2,0,0,1,.08.66V65a.39.39,0,0,1-.18.35.64.64,0,0,1-.3.06h-1.21l-.58,0a.75.75,0,0,1-.57-.34.88.88,0,0,1-.15-.51,1,1,0,0,1,.22-.64.84.84,0,0,1,.55-.25l.43,0Zm0,.62h-.94a1.11,1.11,0,0,0-.26,0,.25.25,0,0,0-.18.26.22.22,0,0,0,.14.21.6.6,0,0,0,.3,0h.94Z"/><path class="cls-1" d="M124.67,65v-3a.77.77,0,0,1,0-.18.38.38,0,0,1,.16-.23.39.39,0,0,1,.23-.07.4.4,0,0,1,.35.18.78.78,0,0,1,0,.3v3a.87.87,0,0,1,0,.19.34.34,0,0,1-.15.22.35.35,0,0,1-.24.08.39.39,0,0,1-.34-.19.61.61,0,0,1-.06-.3"/><path class="cls-1" d="M127.56,61.43h0a.4.4,0,0,1,.35.18.7.7,0,0,1,.06.3v1.77a4.08,4.08,0,0,0,0,.57.51.51,0,0,0,.48.44,3.5,3.5,0,0,0,.56,0h.39a.41.41,0,0,1,.32.1.31.31,0,0,1,.11.25.3.3,0,0,1-.11.25.41.41,0,0,1-.32.11H129a5.7,5.7,0,0,1-.7,0,1.34,1.34,0,0,1-.59-.21,1.18,1.18,0,0,1-.39-.44,1.17,1.17,0,0,1-.13-.47,4.9,4.9,0,0,1,0-.61V61.83a.45.45,0,0,1,.12-.29.39.39,0,0,1,.3-.11"/><path class="cls-1" d="M130.6,61.43h1.21a3.09,3.09,0,0,1,1,.12,1.28,1.28,0,0,1,.86.86,2.93,2.93,0,0,1,.17,1,3.17,3.17,0,0,1-.16,1,1.37,1.37,0,0,1-.51.73,1.63,1.63,0,0,1-.79.22,4.53,4.53,0,0,1-.55,0H130.5a.4.4,0,0,1-.34-.19.64.64,0,0,1-.06-.3v-3a.55.55,0,0,1,0-.24.42.42,0,0,1,.46-.24m.36.71v2.59h.85a1.06,1.06,0,0,0,.78-.25,1.5,1.5,0,0,0,.21-.44,2.37,2.37,0,0,0,.07-.61,2.1,2.1,0,0,0-.15-.82.71.71,0,0,0-.43-.4,1.25,1.25,0,0,0-.48-.07Z"/><path class="cls-1" d="M136.46,64.51h-1.52l-.24.55a.59.59,0,0,1-.12.23.45.45,0,0,1-.34.15.47.47,0,0,1-.47-.47.47.47,0,0,1,0-.17l1.26-3a.66.66,0,0,1,.14-.24l.12-.07a.65.65,0,0,1,.22,0h.3a.49.49,0,0,1,.25,0,.53.53,0,0,1,.23.29l1.22,2.94a.75.75,0,0,1,.07.28.42.42,0,0,1-.1.28.41.41,0,0,1-.35.18.44.44,0,0,1-.38-.18,1.17,1.17,0,0,1-.1-.2Zm-.76-2.12-.58,1.41h1.15Z"/><path class="cls-1" d="M138.1,61.43a1.33,1.33,0,0,1,.55.13,1.8,1.8,0,0,1,.94,1,3.48,3.48,0,0,1,.28,1.49,2.42,2.42,0,0,1-.89,2.2,1.78,1.78,0,0,1-.78.29h-.12a.32.32,0,0,1-.21-.08.28.28,0,0,1-.1-.22c0-.2.12-.33.35-.39a1,1,0,0,0,.66-.54,2.66,2.66,0,0,0,.22-1.22,3.39,3.39,0,0,0-.24-1.45,1.07,1.07,0,0,0-.5-.44l-.23-.08a.36.36,0,0,1-.18-.14.32.32,0,0,1-.08-.21.37.37,0,0,1,.1-.24.42.42,0,0,1,.23-.07"/></g></g></svg>