<svg xmlns="http://www.w3.org/2000/svg" viewBox="0 0 557.26 487.65"><defs><style>.cls-1,.cls-13,.cls-15,.cls-2,.cls-21,.cls-3,.cls-4,.cls-5{fill:none;stroke-miterlimit:10;}.cls-1,.cls-21{stroke:#7b7b7b;}.cls-1,.cls-2,.cls-3,.cls-4{stroke-width:80px;}.cls-15,.cls-2{stroke:#93d500;}.cls-3,.cls-5{stroke:#b7c7d3;}.cls-13,.cls-4{stroke:#9e968d;}.cls-6{font-size:16.52px;fill:#bdcdc3;font-family:BeVietnam-Regular, BeVietnam Regular;}.cls-7{letter-spacing:-0.01em;}.cls-8{letter-spacing:0em;}.cls-9{letter-spacing:0.01em;}.cls-10{letter-spacing:0em;}.cls-11{letter-spacing:-0.01em;}.cls-12{letter-spacing:-0.01em;}.cls-14{font-size:12px;fill:#1d1934;font-family:FlamaCondensed-Medium, FlamaCondensed Medium;font-weight:500;}.cls-16{letter-spacing:-0.01em;}.cls-17{letter-spacing:0.01em;}.cls-18{letter-spacing:0em;}.cls-19{letter-spacing:0em;}.cls-20{letter-spacing:0em;}.cls-22{letter-spacing:0em;}.cls-23{letter-spacing:-0.01em;}.cls-24{letter-spacing:-0.05em;}.cls-25{letter-spacing:0.01em;}</style></defs><title>canaan-companies</title><g id="Layer_2" data-name="Layer 2"><g id="Layer_1-2" data-name="Layer 1"><path class="cls-1" d="M159.08,337.37a156,156,0,0,1,111-46.22"/><path class="cls-2" d="M113.62,447.65a156,156,0,0,1,45.46-110.28"/><path class="cls-3" d="M382.57,338.81a156,156,0,0,1,44.05,108.84v1.15"/><path class="cls-4" d="M270.12,291.15a156,156,0,0,1,112.45,47.66"/><polyline class="cls-5" points="505.26 309.83 505.26 354.3 439.12 396.37"/><circle class="cls-5" cx="505.26" cy="258.42" r="51.5"/><text class="cls-6" transform="translate(343.54 41.13)"><tspan class="cls-7">C<tspan class="cls-8" x="9.47" y="0">anaan</tspan></tspan><tspan class="cls-9"><tspan x="5.32" y="18.03">S</tspan><tspan class="cls-8" x="13.56" y="18.03">outh</tspan></tspan><tspan class="cls-10" x="13.01" y="36.06">L</tspan><tspan class="cls-11" x="20.74" y="36.06">t</tspan><tspan class="cls-12" x="26.11" y="36.06">d</tspan><tspan x="35.26" y="36.06">.</tspan></text><circle class="cls-13" cx="369.38" cy="52" r="51.5"/><line class="cls-13" x1="369.38" y1="103.69" x2="369.38" y2="118.03"/><text class="cls-14" transform="matrix(0.48, 0.8, -0.86, 0.51, 402.26, 364.79)">T</text><text class="cls-14" transform="matrix(0.44, 0.82, -0.88, 0.47, 404.92, 369.23)">O</text><text class="cls-14" transform="translate(408.54 375.94) rotate(64.38) scale(0.93 1)">U</text><text class="cls-14" transform="translate(411.62 382.39) rotate(66.81) scale(0.93 1)">R</text><text class="cls-14" transform="matrix(0.34, 0.87, -0.93, 0.37, 413.95, 387.87)">I</text><text class="cls-14" transform="translate(414.93 390.31) rotate(69.9) scale(0.93 1)">S</text><text class="cls-14" transform="translate(416.83 395.39) rotate(72.55) scale(0.93 1)">M</text><text class="cls-14" transform="matrix(0.25, 0.9, -0.96, 0.27, 419.46, 403.93)"> </text><text class="cls-14" transform="matrix(0.22, 0.91, -0.97, 0.24, 420.1, 406.14)">&amp;</text><text class="cls-14" transform="matrix(0.88, 0.29, -0.32, 0.95, 315.18, 298.45)">A</text><text class="cls-14" transform="matrix(0.87, 0.33, -0.36, 0.93, 321.43, 300.52)">G</text><text class="cls-14" transform="translate(328.11 303.08) rotate(23.23) scale(0.93 1)">R</text><text class="cls-14" transform="matrix(0.84, 0.4, -0.43, 0.9, 333.59, 305.41)">O</text><text class="cls-14" transform="translate(340.48 308.76) rotate(27.7) scale(0.93 1)">-</text><text class="cls-14" transform="translate(172.08 324.28) rotate(-37.06) scale(0.93 1)">M</text><text class="cls-14" transform="matrix(0.77, -0.52, 0.56, 0.83, 179.11, 318.99)">A</text><text class="cls-14" transform="matrix(0.79, -0.49, 0.53, 0.85, 184.69, 315.19)">N</text><text class="cls-14" transform="translate(190.88 311.37) rotate(-29.04) scale(0.93 1)">U</text><text class="cls-14" transform="translate(197.15 307.91) rotate(-26.74) scale(0.93 1)">F</text><text class="cls-14" transform="translate(201.16 305.86) rotate(-24.84) scale(0.93 1)">A</text><text class="cls-14" transform="translate(207.15 303.08) rotate(-22.48) scale(0.93 1)">C</text><text class="cls-14" transform="translate(213.37 300.52) rotate(-20.18) scale(0.93 1)">T</text><text class="cls-14" transform="translate(218.52 298.61) rotate(-17.85) scale(0.93 1)">U</text><text class="cls-14" transform="translate(225.33 296.43) rotate(-15.44) scale(0.93 1)">R</text><text class="cls-14" transform="translate(231.09 294.86) rotate(-13.86) scale(0.93 1)">I</text><text class="cls-14" transform="translate(233.6 294.2) rotate(-12.03) scale(0.93 1)">N</text><text class="cls-14" transform="matrix(0.92, -0.15, 0.16, 0.99, 240.71, 292.69)">G</text><text class="cls-14" transform="translate(115.77 421.54) rotate(-79.91) scale(0.93 1)">R</text><text class="cls-14" transform="matrix(0.2, -0.91, 0.98, 0.21, 116.82, 415.67)">E</text><text class="cls-14" transform="translate(117.94 410.38) rotate(-75.57) scale(0.93 1)">A</text><text class="cls-14" transform="translate(119.65 403.81) rotate(-73.35) scale(0.93 1)">L</text><text class="cls-14" transform="matrix(0.29, -0.89, 0.95, 0.31, 121.17, 398.79)"> </text><text class="cls-14" transform="matrix(0.31, -0.88, 0.94, 0.33, 121.86, 396.6)">E</text><text class="cls-14" transform="translate(123.67 391.48) rotate(-68.49) scale(0.93 1)">S</text><text class="cls-14" transform="matrix(0.37, -0.85, 0.92, 0.4, 125.67, 386.4)">T</text><text class="cls-14" transform="translate(127.5 382.14) rotate(-64.5) scale(0.93 1)">A</text><text class="cls-14" transform="matrix(0.43, -0.83, 0.89, 0.46, 130.05, 376.78)">T</text><text class="cls-14" transform="translate(132.57 371.92) rotate(-60.53) scale(0.93 1)">E</text><text class="cls-14" transform="matrix(0.48, -0.8, 0.86, 0.51, 135.27, 367.18)"> </text><text class="cls-14" transform="matrix(0.5, -0.79, 0.84, 0.54, 136.43, 365.18)">&amp;</text><text class="cls-14" transform="translate(386.3 367.47) rotate(57.3) scale(0.93 1)">H</text><text class="cls-14" transform="translate(390.2 373.52) rotate(60.33) scale(0.93 1)">O</text><text class="cls-14" transform="matrix(0.42, 0.83, -0.89, 0.45, 393.95, 380.16)">S</text><text class="cls-14" transform="translate(396.42 384.98) rotate(65.31) scale(0.93 1)">P</text><text class="cls-14" transform="translate(398.87 390.37) rotate(67.07) scale(0.93 1)">I</text><text class="cls-14" transform="matrix(0.34, 0.87, -0.93, 0.36, 399.9, 392.76)">T</text><text class="cls-14" transform="matrix(0.31, 0.88, -0.94, 0.33, 401.61, 397.07)">A</text><text class="cls-14" transform="matrix(0.27, 0.89, -0.96, 0.29, 403.81, 403.47)">L</text><text class="cls-14" transform="translate(405.29 408.47) rotate(74.95) scale(0.93 1)">I</text><text class="cls-14" transform="translate(405.99 411) rotate(76.61) scale(0.93 1)">T</text><text class="cls-14" transform="matrix(0.18, 0.92, -0.98, 0.19, 407.33, 416.62)">Y</text><text class="cls-14" transform="translate(297.26 309.36) rotate(12.61) scale(0.93 1)">P</text><text class="cls-14" transform="translate(302.99 310.63) rotate(15.02) scale(0.93 1)">R</text><text class="cls-14" transform="translate(308.75 312.16) rotate(17.78) scale(0.93 1)">O</text><text class="cls-14" transform="translate(316.01 314.5) rotate(20.62) scale(0.93 1)">C</text><text class="cls-14" transform="translate(322.01 316.77) rotate(22.98) scale(0.93 1)">E</text><text class="cls-14" transform="translate(326.99 318.88) rotate(25.15) scale(0.93 1)">S</text><text class="cls-14" transform="translate(331.91 321.19) rotate(27.34) scale(0.93 1)">S</text><text class="cls-14" transform="translate(336.76 323.72) rotate(28.98) scale(0.93 1)">I</text><text class="cls-14" transform="translate(339.05 324.94) rotate(30.99) scale(0.93 1)">N</text><text class="cls-14" transform="matrix(0.77, 0.52, -0.56, 0.83, 345.28, 328.68)">G</text><text class="cls-14" transform="translate(129.87 430.34) rotate(-82.34) scale(0.93 1)">C</text><text class="cls-14" transform="translate(130.66 424.23) rotate(-79.6) scale(0.93 1)">O</text><text class="cls-14" transform="matrix(0.22, -0.91, 0.97, 0.23, 132.04, 416.75)">N</text><text class="cls-14" transform="translate(133.75 409.67) rotate(-73.96) scale(0.93 1)">S</text><text class="cls-14" transform="matrix(0.29, -0.89, 0.95, 0.31, 135.25, 404.45)">T</text><text class="cls-14" transform="matrix(0.33, -0.87, 0.94, 0.35, 136.96, 399.26)">R</text><text class="cls-14" transform="matrix(0.37, -0.86, 0.92, 0.4, 139.03, 393.69)">U</text><text class="cls-14" transform="translate(141.85 387.15) rotate(-63.94) scale(0.93 1)">C</text><text class="cls-14" transform="translate(144.83 381.11) rotate(-61.37) scale(0.93 1)">T</text><text class="cls-14" transform="matrix(0.47, -0.81, 0.86, 0.5, 147.47, 376.3)">I</text><text class="cls-14" transform="translate(148.75 374.02) rotate(-57.62) scale(0.93 1)">O</text><text class="cls-14" transform="translate(152.83 367.59) rotate(-54.59) scale(0.93 1)">N</text><polyline class="cls-15" points="50.16 336.23 50.16 357.54 101.24 377.71"/><text class="cls-6" transform="translate(26.4 121.94)"><tspan class="cls-16">L</tspan><tspan x="7.57" y="0">ehem</tspan><tspan class="cls-17" x="-5.07" y="18.03">I</tspan><tspan class="cls-18" x="-0.96" y="18.03">n</tspan><tspan class="cls-11" x="8.14" y="18.03">t</tspan><tspan x="13.51" y="18.03">e</tspan><tspan class="cls-19" x="21.79" y="18.03">r</tspan><tspan x="27.26" y="18.03">iors</tspan><tspan class="cls-10" x="10.7" y="36.06">L</tspan><tspan class="cls-11" x="18.43" y="36.06">t</tspan><tspan class="cls-12" x="23.8" y="36.06">d</tspan><tspan x="32.95" y="36.06">.</tspan></text><text class="cls-6" transform="translate(24.09 274.87)"><tspan class="cls-7">C<tspan class="cls-8" x="9.47" y="0">anaan</tspan></tspan><tspan class="cls-20" x="-13.15" y="18.03">D</tspan><tspan x="-2.08" y="18.03">e</tspan><tspan class="cls-12" x="6.19" y="18.03">v</tspan><tspan x="13.98" y="18.03">elopers</tspan><tspan class="cls-10" x="13.01" y="36.06">L</tspan><tspan class="cls-11" x="20.74" y="36.06">t</tspan><tspan class="cls-12" x="26.11" y="36.06">d</tspan><tspan x="35.26" y="36.06">.</tspan></text><circle class="cls-15" cx="49.93" cy="285.92" r="49.43" transform="translate(-187.55 119.05) rotate(-45)"/><circle class="cls-15" cx="49.93" cy="135.67" r="49.43" transform="translate(-81.31 75.04) rotate(-45)"/><line class="cls-15" x1="49.93" y1="236.49" x2="49.93" y2="185.1"/><line class="cls-21" x1="193.25" y1="238.18" x2="193.25" y2="279.34"/><text class="cls-6" transform="translate(166.67 174.05)"><tspan class="cls-7">C<tspan class="cls-8" x="9.47" y="0">anaan</tspan></tspan><tspan class="cls-22"><tspan x="0.65" y="18.03">P</tspan><tspan class="cls-8" x="9.36" y="18.03">lastics</tspan></tspan><tspan class="cls-10" x="13.01" y="36.06">L</tspan><tspan class="cls-11" x="20.74" y="36.06">t</tspan><tspan class="cls-12" x="26.11" y="36.06">d</tspan><tspan x="35.26" y="36.06">.</tspan></text><circle class="cls-21" cx="192.55" cy="184.63" r="53.54" transform="translate(-25.16 338.79) rotate(-79.1)"/><text class="cls-6" transform="translate(486.52 247.55)"><tspan class="cls-19">R</tspan><tspan class="cls-23" x="8.95" y="0">o</tspan><tspan class="cls-18" x="17.91" y="0">y</tspan><tspan x="25.62" y="0">al</tspan><tspan class="cls-24" x="1.88" y="18.03">T</tspan><tspan x="9.34" y="18.03">ulip</tspan><tspan x="0.05" y="36.06">Ho</tspan><tspan class="cls-11" x="19.89" y="36.06">t</tspan><tspan x="25.26" y="36.06">el</tspan></text><polyline class="cls-13" points="369.38 220.99 369.38 240.91 335.52 289.43"/><text class="cls-6" transform="translate(343.54 158.63)"><tspan class="cls-7">C<tspan class="cls-8" x="9.47" y="0">anaan</tspan></tspan><tspan class="cls-24" x="-4.89" y="18.03">F</tspan><tspan class="cls-8" x="2.41" y="18.03">a</tspan><tspan class="cls-25" x="10.37" y="18.03">c</tspan><tspan class="cls-11" x="17.99" y="18.03">t</tspan><tspan x="23.36" y="18.03">o</tspan><tspan class="cls-19" x="32.43" y="18.03">r</tspan><tspan x="37.9" y="18.03">ies</tspan><tspan class="cls-10" x="13.01" y="36.06">L</tspan><tspan class="cls-11" x="20.74" y="36.06">t</tspan><tspan class="cls-12" x="26.11" y="36.06">d</tspan><tspan x="35.26" y="36.06">.</tspan></text><circle class="cls-13" cx="369.38" cy="169.49" r="51.5"/></g></g></svg>