<svg xmlns="http://www.w3.org/2000/svg" viewBox="0 0 115.95 118.17"><defs><style>.cls-1{fill:#b4ca17;}.cls-2{fill:#1e1c3c;}</style></defs><title>canaan-plastics</title><g id="Layer_2" data-name="Layer 2"><g id="Layer_1-2" data-name="Layer 1"><path class="cls-1" d="M17.92,108.41a14.83,14.83,0,0,1,2.41-.18,4,4,0,0,1,2.73.81,2.61,2.61,0,0,1,.85,2,2.88,2.88,0,0,1-.75,2.08,4,4,0,0,1-3,1.07,4.35,4.35,0,0,1-1-.09V118H17.92Zm1.26,4.7a4.3,4.3,0,0,0,1,.1c1.51,0,2.44-.74,2.44-2.08s-.91-1.91-2.3-1.91a5.7,5.7,0,0,0-1.18.1Z"/><path class="cls-1" d="M25.6,108.3h1.26V117H31V118H25.6Z"/><path class="cls-1" d="M34,115,33,118h-1.3L35,108.3H36.5L39.82,118H38.48l-1-3.06Zm3.19-1-1-2.8c-.22-.64-.36-1.22-.51-1.78h0c-.15.58-.31,1.17-.5,1.76l-1,2.82Z"/><path class="cls-1" d="M41.08,116.5a4.56,4.56,0,0,0,2.26.63c1.28,0,2-.68,2-1.66s-.52-1.43-1.83-1.93C42,113,41,112.15,41,110.78s1.25-2.64,3.15-2.64a4.4,4.4,0,0,1,2.15.48l-.35,1a3.94,3.94,0,0,0-1.85-.46c-1.33,0-1.83.79-1.83,1.46,0,.91.59,1.35,1.93,1.87,1.65.64,2.49,1.43,2.49,2.86s-1.12,2.8-3.41,2.8a5,5,0,0,1-2.48-.62Z"/><path class="cls-1" d="M50.22,109.37h-3V108.3h7.21v1.07h-3V118H50.22Z"/><path class="cls-1" d="M56.81,108.3V118H55.55V108.3Z"/><path class="cls-1" d="M65.8,117.71a6.23,6.23,0,0,1-2.57.46,4.54,4.54,0,0,1-4.8-4.92,4.84,4.84,0,0,1,5.08-5.11,5.28,5.28,0,0,1,2.31.43l-.31,1a4.54,4.54,0,0,0-2-.41c-2.28,0-3.8,1.46-3.8,4,0,2.38,1.38,3.91,3.74,3.91a4.91,4.91,0,0,0,2.05-.41Z"/><path class="cls-1" d="M67.21,116.5a4.49,4.49,0,0,0,2.25.63c1.28,0,2-.68,2-1.66S71,114,69.66,113.54c-1.59-.56-2.57-1.39-2.57-2.76s1.26-2.64,3.15-2.64a4.37,4.37,0,0,1,2.15.48l-.35,1a3.85,3.85,0,0,0-1.84-.46c-1.33,0-1.84.79-1.84,1.46,0,.91.59,1.35,1.94,1.87,1.64.64,2.48,1.43,2.48,2.86s-1.11,2.8-3.41,2.8a5,5,0,0,1-2.48-.62Z"/><path class="cls-1" d="M77.56,108.3h1.26V117H83V118H77.56Z"/><path class="cls-1" d="M85,109.37H82V108.3h7.2v1.07h-3V118H85Z"/><path class="cls-1" d="M90.3,108.43a17.32,17.32,0,0,1,2.67-.2,5.59,5.59,0,0,1,3.94,1.21,4.46,4.46,0,0,1,1.37,3.49,5.13,5.13,0,0,1-1.4,3.78,6,6,0,0,1-4.3,1.4A20.8,20.8,0,0,1,90.3,118Zm1.25,8.6a7.78,7.78,0,0,0,1.28.07c2.68,0,4.14-1.5,4.14-4.12,0-2.3-1.29-3.76-3.94-3.76a7.44,7.44,0,0,0-1.48.13Z"/><path class="cls-2" d="M12.59,85.71a14.64,14.64,0,0,0,1.77.45,1.36,1.36,0,0,0,.74-.22,1.13,1.13,0,0,0,.48-.67h.58l.26,6.19h-.63a8.76,8.76,0,0,0-1.45-3,5.52,5.52,0,0,0-4.56-2.13A5.81,5.81,0,0,0,5,88.65,9.84,9.84,0,0,0,3.21,95a8.58,8.58,0,0,0,1.93,5.89A6.23,6.23,0,0,0,10,103.05a7.89,7.89,0,0,0,4-1,11.81,11.81,0,0,0,2.28-1.75l.51.51a9.45,9.45,0,0,1-7.3,3.52,9.12,9.12,0,0,1-7.06-2.84A9.32,9.32,0,0,1,0,94.9a9.52,9.52,0,0,1,2.55-6.76,9.07,9.07,0,0,1,7-2.87A11.5,11.5,0,0,1,12.59,85.71Z"/><path class="cls-2" d="M18.12,103.84v-.51a2.23,2.23,0,0,0,1.59-.8,21.72,21.72,0,0,0,1.83-3.73l5.74-13.53h.55l6.87,15.64a6.87,6.87,0,0,0,1.1,1.92,2.72,2.72,0,0,0,1.38.5v.51h-7v-.51a6.42,6.42,0,0,0,1.56-.26c.23-.11.35-.36.35-.76a3.48,3.48,0,0,0-.14-.71,7.58,7.58,0,0,0-.37-1.07l-1.11-2.66H23.19c-.71,1.81-1.14,2.91-1.28,3.31a3.05,3.05,0,0,0-.21.94,1,1,0,0,0,.57,1,4.26,4.26,0,0,0,1.31.24v.51ZM30,96.76l-3.17-7.6-3.17,7.6Z"/><path class="cls-2" d="M37.94,103.33a3.35,3.35,0,0,0,2.19-.77,5,5,0,0,0,.49-2.78V87.62l-.38-.44a2.86,2.86,0,0,0-1-.88,4.09,4.09,0,0,0-1.27-.2v-.51h4.71l10.64,13.2V89.62c0-1.5-.22-2.49-.67-2.94a3.37,3.37,0,0,0-2-.58v-.51h6.48v.51a3.24,3.24,0,0,0-2.1.77,4.75,4.75,0,0,0-.53,2.78v14.51H54L41.83,89V99.78a4.48,4.48,0,0,0,.66,2.94,3.36,3.36,0,0,0,1.93.61v.51H37.94Z"/><path class="cls-2" d="M57,103.84v-.51a2.23,2.23,0,0,0,1.59-.8,21.72,21.72,0,0,0,1.83-3.73l5.74-13.53h.55l6.88,15.64a6.68,6.68,0,0,0,1.09,1.92,2.72,2.72,0,0,0,1.38.5v.51h-7v-.51a6.32,6.32,0,0,0,1.56-.26c.23-.11.35-.36.35-.76a3.48,3.48,0,0,0-.14-.71,7.58,7.58,0,0,0-.37-1.07l-1.11-2.66H62.09c-.71,1.81-1.14,2.91-1.28,3.31a3.05,3.05,0,0,0-.21.94,1,1,0,0,0,.57,1,4.26,4.26,0,0,0,1.31.24v.51ZM68.9,96.76l-3.16-7.6-3.18,7.6Z"/><path class="cls-2" d="M76.94,103.84v-.51a2.23,2.23,0,0,0,1.59-.8,21.72,21.72,0,0,0,1.83-3.73L86.1,85.27h.55l6.87,15.64a6.87,6.87,0,0,0,1.1,1.92,2.72,2.72,0,0,0,1.38.5v.51H89v-.51a6.42,6.42,0,0,0,1.56-.26c.23-.11.35-.36.35-.76a3.48,3.48,0,0,0-.14-.71,6.58,6.58,0,0,0-.38-1.07l-1.1-2.66H82c-.71,1.81-1.14,2.91-1.28,3.31a3.05,3.05,0,0,0-.21.94,1,1,0,0,0,.56,1,4.41,4.41,0,0,0,1.32.24v.51Zm11.88-7.08-3.17-7.6-3.17,7.6Z"/><path class="cls-2" d="M96.76,103.33a3.35,3.35,0,0,0,2.19-.77,5,5,0,0,0,.49-2.78V87.62l-.38-.44a3,3,0,0,0-1-.88,4.09,4.09,0,0,0-1.27-.2v-.51h4.71l10.64,13.2V89.62c0-1.5-.22-2.49-.67-2.94a3.37,3.37,0,0,0-2-.58v-.51H116v.51a3.24,3.24,0,0,0-2.1.77,4.75,4.75,0,0,0-.53,2.78v14.51h-.47L100.65,89V99.78a4.48,4.48,0,0,0,.66,2.94,3.36,3.36,0,0,0,1.93.61v.51H96.76Z"/><path class="cls-2" d="M61.8,0l2.55.42A33.44,33.44,0,0,1,84.27,11.7a37.27,37.27,0,0,1,9.1,20.06c.06.44.11.87.18,1.39-.8-.41-1.53-.8-2.27-1.16a23.93,23.93,0,0,0-11.13-2.31.77.77,0,0,1-.91-.6A22.8,22.8,0,0,0,69.46,17a20.48,20.48,0,0,0-24.83,3c-2.72,2.68-3.8,4.33-5.77,8.68a28.1,28.1,0,0,0-14.35,4.08c.11-.83.19-1.56.31-2.29A36.76,36.76,0,0,1,35.14,10.14,33.2,33.2,0,0,1,55.23.2c.34,0,.68-.13,1-.2Z"/><path class="cls-1" d="M40.71,49.7a23.8,23.8,0,0,0,3.87,5.1,20.29,20.29,0,0,0,12,5.75,19.78,19.78,0,0,0,17.13-5.92A22.74,22.74,0,0,0,79,46.55a.78.78,0,0,1,.87-.58,22.26,22.26,0,0,0,9.34-1.55c1.29-.54,2.52-1.22,3.79-1.84l.63-.31c-.31,1.63-.54,3.14-.9,4.63a36.73,36.73,0,0,1-16.22,23,30.78,30.78,0,0,1-12.62,4.57,28.86,28.86,0,0,1-5.79.44A33.88,33.88,0,0,1,41,69.47a.79.79,0,0,1-.31-.53q0-9.49,0-19a1,1,0,0,1,.07-.25"/><path class="cls-2" d="M69.06,38.33a12.12,12.12,0,0,0-1.67-6.63,9.78,9.78,0,0,0-15.26-2.19,11.53,11.53,0,0,0-.78,15.57,9.61,9.61,0,0,0,12.56,2.14,10.6,10.6,0,0,0,5.15-8.89M49.24,77.77H40.58v-42a3.48,3.48,0,0,0,.1-.41,19.15,19.15,0,0,1,1.47-6.06C44.73,23.36,49,19.41,55.46,18c.87-.2,1.78-.27,2.67-.4h1.56a1.48,1.48,0,0,0,.36.1A17.16,17.16,0,0,1,71.36,22.9a19.51,19.51,0,0,1,5.76,13.39,19.9,19.9,0,0,1-6,15.56,17.33,17.33,0,0,1-20,3.2c-.62-.32-1.21-.67-1.88-1V77.77Z"/></g></g></svg>