<svg xmlns="http://www.w3.org/2000/svg" viewBox="0 0 237.4 34.71"><defs><style>.cls-1{fill:#9bc11a;}.cls-2{fill:#009942;}.cls-3{fill:#2c2d7b;}</style></defs><title>CFL</title><g id="Layer_2" data-name="Layer 2"><g id="Layer_1-2" data-name="Layer 1"><polygon class="cls-1" points="30.95 0 30.95 14.13 38.34 12.92 38.34 7.38 56.6 7.38 56.6 0 30.95 0 30.95 0"/><polygon class="cls-1" points="30.95 15.97 30.95 34.46 38.34 34.46 38.34 20.93 38.34 13.54 38.34 13.02 30.95 15.97 30.95 15.97"/><path class="cls-1" d="M24.37,24.37l5.26,5.26a16.72,16.72,0,0,1-12.27,5.08A16.72,16.72,0,0,1,5.08,29.63,16.72,16.72,0,0,1,0,17.35,16.72,16.72,0,0,1,5.08,5.08,16.72,16.72,0,0,1,17.36,0,16.72,16.72,0,0,1,29.63,5.08l-5.26,5.26a9.56,9.56,0,0,0-7-2.9,9.6,9.6,0,0,0-7,2.9,9.55,9.55,0,0,0-2.89,7,9.55,9.55,0,0,0,2.89,7,9.56,9.56,0,0,0,7,2.9,9.52,9.52,0,0,0,7-2.9"/><polygon class="cls-1" points="58.8 0 66.19 0 66.19 27.08 81.59 27.08 81.59 34.46 58.8 34.46 58.8 0 58.8 0"/><path class="cls-2" d="M55.34,15.85v-.08a3.92,3.92,0,0,0-3-3.66l-.15,0a9.16,9.16,0,0,0-5.89.92c-5,2.26-7.93,0-7.93,0L25.83,18s10.86,6.54,20.53,3.25c1.4-.48,2.82-1.38,4.81-1.46.18,0,.35,0,.53,0a11,11,0,0,1,3.66.65s0-2.54,0-4.62"/><path class="cls-3" d="M96.77,9.61c0,1.21.13,2.58,1.49,2.58a1.58,1.58,0,0,0,1.58-1.08.53.53,0,0,1,.43.58c0,.93-1.08,1.4-2.11,1.4-2.15,0-2.78-1.51-2.78-3.44s.72-3.48,2.88-3.48c1.19,0,2.13.38,2.13,1.45a.78.78,0,0,1-.85.79A1,1,0,0,1,99,8.26a1.51,1.51,0,0,0,.09-.5.79.79,0,0,0-.89-.89c-1.28,0-1.39,1.6-1.39,2.74"/><path class="cls-3" d="M107.34,12.88H106l-.44-1.66h-2.17L103,12.88h-1.22l2-6.5h1.65l1.89,6.5Zm-1.94-2.39-.9-3.38-.88,3.38Z"/><polygon class="cls-3" points="110.15 8.42 110.15 12.88 109.11 12.88 109.11 6.38 110.09 6.38 113.03 10.83 113.03 6.38 114.06 6.38 114.06 12.88 113.09 12.88 110.15 8.42 110.15 8.42"/><path class="cls-3" d="M121.4,12.88h-1.31l-.44-1.66h-2.17l-.43,1.66h-1.22l2-6.5h1.65l1.89,6.5Zm-1.94-2.39-.89-3.38-.89,3.38Z"/><path class="cls-3" d="M128.07,12.88h-1.3l-.45-1.66h-2.17l-.43,1.66H122.5l2-6.5h1.65l1.89,6.5Zm-1.93-2.39-.9-3.38-.89,3.38Z"/><polygon class="cls-3" points="130.88 8.42 130.88 12.88 129.84 12.88 129.84 6.38 130.83 6.38 133.76 10.83 133.76 6.38 134.8 6.38 134.8 12.88 133.83 12.88 130.88 8.42 130.88 8.42"/><polygon class="cls-3" points="143.98 7.1 141.57 7.1 141.57 9.31 143.65 9.31 143.65 10.04 141.57 10.04 141.57 12.88 140.27 12.88 140.27 6.38 143.98 6.38 143.98 7.1 143.98 7.1"/><path class="cls-3" d="M150.9,12.88h-1.31l-.44-1.66H147l-.43,1.66h-1.22l2-6.5H149l1.9,6.5ZM149,10.49l-.9-3.38-.88,3.38Z"/><path class="cls-3" d="M153.77,9.61c0,1.21.13,2.58,1.49,2.58a1.58,1.58,0,0,0,1.58-1.08.53.53,0,0,1,.43.58c0,.93-1.08,1.4-2.12,1.4-2.14,0-2.77-1.51-2.77-3.44s.71-3.48,2.88-3.48c1.19,0,2.13.38,2.13,1.45a.78.78,0,0,1-.85.79,1,1,0,0,1-.58-.15,1.51,1.51,0,0,0,.09-.5.79.79,0,0,0-.9-.89c-1.27,0-1.38,1.6-1.38,2.74"/><polygon class="cls-3" points="163.34 7.1 161.63 7.1 161.63 12.88 160.34 12.88 160.34 7.1 158.62 7.1 158.62 6.38 163.42 6.38 163.34 7.1 163.34 7.1"/><path class="cls-3" d="M170.36,9.54c0,2-.62,3.55-2.83,3.55s-2.84-1.47-2.84-3.44.7-3.48,2.84-3.48,2.83,1.46,2.83,3.37M169,9.61c0-1.16-.14-2.74-1.45-2.74s-1.44,1.58-1.44,2.74.1,2.79,1.44,2.79S169,10.81,169,9.61"/><path class="cls-3" d="M175.8,9.94l1.91,2.94H176.3l-2-3.12a.31.31,0,0,1-.07-.2c1.11,0,1.63-.41,1.63-1.36,0-.79-.45-1.18-1.37-1.18a4.25,4.25,0,0,0-.71.06v5.8h-1.29V6.41c.65,0,1.41-.07,2.07-.07,1.56,0,2.63.48,2.63,1.82a1.77,1.77,0,0,1-1.42,1.78"/><polygon class="cls-3" points="179.49 6.38 180.79 6.38 180.79 12.88 179.49 12.88 179.49 6.38 179.49 6.38"/><polygon class="cls-3" points="186.93 7.1 184.52 7.1 184.52 9.17 186.6 9.17 186.6 9.9 184.52 9.9 184.52 12.14 187.09 12.14 187.01 12.88 183.22 12.88 183.22 6.38 186.93 6.38 186.93 7.1 186.93 7.1"/><path class="cls-3" d="M193.33,7.54a.79.79,0,0,1-.86.8,1,1,0,0,1-.57-.15,2.17,2.17,0,0,0,.08-.5.77.77,0,0,0-.87-.86c-.54,0-.89.23-.89.71,0,1.49,3.18,1.74,3.18,3.71,0,1.21-1.05,1.84-2.42,1.84-1.18,0-2.25-.38-2.25-1.44a.79.79,0,0,1,.86-.8,1,1,0,0,1,.58.17,1.36,1.36,0,0,0-.08.49c0,.61.3.93,1,.93s1.1-.33,1.1-.89c0-1.49-3.18-1.73-3.18-3.71,0-1.08,1-1.67,2.21-1.67s2.12.35,2.12,1.37"/><polygon class="cls-3" points="199.84 6.38 199.84 12.14 202.25 12.14 202.17 12.88 198.54 12.88 198.54 6.38 199.84 6.38 199.84 6.38"/><polygon class="cls-3" points="204.08 6.38 205.37 6.38 205.37 12.88 204.08 12.88 204.08 6.38 204.08 6.38"/><polygon class="cls-3" points="214.54 12.88 213.25 12.88 213.25 7.45 211.48 12.88 210.62 12.88 208.85 7.43 208.85 12.88 207.81 12.88 207.81 6.38 209.75 6.38 211.23 11.05 212.7 6.38 214.54 6.38 214.54 12.88 214.54 12.88"/><polygon class="cls-3" points="216.98 6.38 218.27 6.38 218.27 12.88 216.98 12.88 216.98 6.38 216.98 6.38"/><polygon class="cls-3" points="224.61 7.1 222.91 7.1 222.91 12.88 221.62 12.88 221.62 7.1 219.89 7.1 219.89 6.38 224.69 6.38 224.61 7.1 224.61 7.1"/><polygon class="cls-3" points="229.96 7.1 227.54 7.1 227.54 9.17 229.63 9.17 229.63 9.9 227.54 9.9 227.54 12.14 230.11 12.14 230.03 12.88 226.25 12.88 226.25 6.38 229.96 6.38 229.96 7.1 229.96 7.1"/><path class="cls-3" d="M234.51,6.34c2.11,0,2.89,1.24,2.89,3.13,0,2.08-.83,3.5-3.16,3.5a15.31,15.31,0,0,1-2-.14V6.41c.65,0,1.64-.07,2.31-.07m1.54,3.27c0-1.25-.24-2.59-1.62-2.59a7.14,7.14,0,0,0-.93.06v5.14a3.7,3.7,0,0,0,.74.06c1.64,0,1.81-1.21,1.81-2.67"/><path class="cls-2" d="M120.65,19.14c2.62,0,3.59,1.75,3.59,4.36,0,2.89-1,4.88-3.92,4.88a16.14,16.14,0,0,1-2.51-.21V19.26c.8-.06,2-.12,2.84-.12m1.92,4.55c0-1.72-.3-3.58-2-3.58a11.26,11.26,0,0,0-1.15.07v7.16a5.82,5.82,0,0,0,.92.08c2,0,2.25-1.68,2.25-3.73"/><path class="cls-2" d="M133,28.24h-1.62l-.54-2.3h-2.69l-.53,2.3h-1.5l2.49-9h2l2.35,9Zm-2.4-3.31-1.11-4.69-1.09,4.69Z"/><polygon class="cls-2" points="135.14 19.2 136.75 19.2 136.75 28.24 135.14 28.24 135.14 19.2 135.14 19.2"/><path class="cls-2" d="M143.83,24.16l2.37,4.08h-1.75L142,23.91a.51.51,0,0,1-.09-.27c1.38,0,2-.57,2-1.9,0-1.09-.54-1.63-1.7-1.63a6.25,6.25,0,0,0-.87.07v8.06h-1.61v-9c.81-.06,1.76-.12,2.58-.12,1.92,0,3.24.68,3.24,2.54a2.42,2.42,0,0,1-1.75,2.48"/><polygon class="cls-2" points="151.83 28.24 150.23 28.24 150.23 24.23 147.6 19.2 149.35 19.2 151.13 22.91 152.82 19.2 154.46 19.2 151.83 24.07 151.83 28.24 151.83 28.24"/><path class="cls-2" d="M163.29,19.14c2.61,0,3.59,1.75,3.59,4.36,0,2.89-1,4.88-3.92,4.88a16.37,16.37,0,0,1-2.52-.21V19.26c.81-.06,2-.12,2.85-.12m1.91,4.55c0-1.72-.3-3.58-2-3.58a11.26,11.26,0,0,0-1.15.07v7.16a5.82,5.82,0,0,0,.92.08c2,0,2.24-1.68,2.24-3.73"/><polygon class="cls-2" points="169.54 19.2 171.13 19.2 171.13 28.24 169.54 28.24 169.54 19.2 169.54 19.2"/><polygon class="cls-2" points="177.55 28.24 175.49 28.24 173.25 19.2 174.87 19.2 176.67 27.22 178.44 19.2 179.94 19.2 177.55 28.24 177.55 28.24"/><polygon class="cls-2" points="182.08 19.2 183.68 19.2 183.68 28.24 182.08 28.24 182.08 19.2 182.08 19.2"/><path class="cls-2" d="M191.82,20.83a1,1,0,0,1-1,1.11,1.06,1.06,0,0,1-.71-.22,4,4,0,0,0,.09-.67c0-.76-.31-1.21-1.07-1.21s-1.11.33-1.11,1c0,2.07,3.95,2.42,3.95,5.15,0,1.69-1.3,2.56-3,2.56-1.46,0-2.78-.53-2.78-2a1,1,0,0,1,1.07-1.11,1.13,1.13,0,0,1,.71.22,2.4,2.4,0,0,0-.1.69c0,.85.38,1.3,1.22,1.3a1.26,1.26,0,0,0,1.38-1.25c0-2.06-3.95-2.41-3.95-5.14,0-1.51,1.22-2.32,2.74-2.32s2.61.48,2.61,1.9"/><polygon class="cls-2" points="194.52 19.2 196.12 19.2 196.12 28.24 194.52 28.24 194.52 19.2 194.52 19.2"/><path class="cls-2" d="M205.8,23.6c0,2.73-.77,4.94-3.5,4.94s-3.53-2.05-3.53-4.78.87-4.83,3.53-4.83,3.5,2,3.5,4.67m-1.72.09c0-1.61-.18-3.8-1.8-3.8s-1.77,2.19-1.77,3.8.11,3.9,1.77,3.9,1.8-2.22,1.8-3.9"/><polygon class="cls-2" points="209.75 22.06 209.75 28.24 208.47 28.24 208.47 19.2 209.68 19.2 213.31 25.4 213.31 19.2 214.59 19.2 214.59 28.24 213.39 28.24 209.75 22.06 209.75 22.06"/><polygon class="cls-2" points="95.38 22.68 111.7 22.68 111.7 24.43 95.38 24.43 95.38 22.68 95.38 22.68"/><polygon class="cls-2" points="221.08 22.68 237.4 22.68 237.4 24.43 221.08 24.43 221.08 22.68 221.08 22.68"/></g></g></svg>