<svg xmlns="http://www.w3.org/2000/svg" viewBox="0 0 557.26 361.75"><defs><style>.cls-1,.cls-10,.cls-11,.cls-12,.cls-13,.cls-14,.cls-16,.cls-22,.cls-26,.cls-9{fill:none;stroke-miterlimit:10;}.cls-1,.cls-10{stroke:#cb9700;}.cls-2{font-size:16.52px;fill:#bdcdc3;font-family:BeVietnam-Regular, BeVietnam Regular;}.cls-3{letter-spacing:-0.01em;}.cls-4{letter-spacing:0em;}.cls-5{letter-spacing:0.01em;}.cls-6{letter-spacing:0em;}.cls-7{letter-spacing:-0.01em;}.cls-8{letter-spacing:-0.01em;}.cls-9{stroke:#968f84;}.cls-10,.cls-11,.cls-12,.cls-13,.cls-14{stroke-width:80px;}.cls-11,.cls-26{stroke:#d1ccbd;}.cls-12{stroke:#9e968d;}.cls-13{stroke:#bdcdc3;}.cls-14,.cls-16{stroke:#93d500;}.cls-15{font-size:12px;fill:#1d1934;font-family:FlamaCondensed-Medium, FlamaCondensed Medium;font-weight:500;}.cls-17{letter-spacing:-0.01em;}.cls-18{letter-spacing:0.01em;}.cls-19{letter-spacing:0em;}.cls-20{letter-spacing:0em;}.cls-21{letter-spacing:0em;}.cls-22{stroke:#b5c6bb;}.cls-23{letter-spacing:0em;}.cls-24{letter-spacing:-0.01em;}.cls-25{letter-spacing:-0.05em;}.cls-27{letter-spacing:0.01em;}</style></defs><title>companies2</title><g id="Layer_2" data-name="Layer 2"><g id="Layer_1-2" data-name="Layer 1"><polyline class="cls-1" points="505.26 224.09 505.26 268.57 439.12 310.64"/><circle class="cls-1" cx="505.26" cy="172.69" r="51.5"/><text class="cls-2" transform="translate(243.13 44.42)"><tspan class="cls-3">C<tspan class="cls-4" x="9.47" y="0">anaan</tspan></tspan><tspan class="cls-5"><tspan x="5.32" y="18.03">S</tspan><tspan class="cls-4" x="13.56" y="18.03">outh</tspan></tspan><tspan class="cls-6" x="13.01" y="36.06">L</tspan><tspan class="cls-7" x="20.74" y="36.06">t</tspan><tspan class="cls-8" x="26.11" y="36.06">d</tspan><tspan x="35.26" y="36.06">.</tspan></text><circle class="cls-9" cx="268.98" cy="55.28" r="51.5"/><line class="cls-9" x1="268.98" y1="106.98" x2="268.98" y2="198.7"/><path class="cls-10" d="M400.69,266.52a161.3,161.3,0,0,1,30.93,95.23"/><path class="cls-11" d="M319.69,207.64a162.32,162.32,0,0,1,81,58.88"/><path class="cls-12" d="M219.55,207.64a162.82,162.82,0,0,1,100.14,0"/><path class="cls-13" d="M138.55,266.52a162.32,162.32,0,0,1,81-58.88"/><path class="cls-14" d="M107.62,361.75a161.3,161.3,0,0,1,30.93-95.23"/><text class="cls-15" transform="translate(422.37 286.4) rotate(64.64) scale(0.93 1)">T</text><text class="cls-15" transform="matrix(0.37, 0.86, -0.92, 0.39, 424.61, 291.06)">O</text><text class="cls-15" transform="translate(427.62 298.07) rotate(69.26) scale(0.93 1)">U</text><text class="cls-15" transform="translate(430.15 304.79) rotate(71.48) scale(0.93 1)">R</text><text class="cls-15" transform="translate(432.03 310.45) rotate(72.94) scale(0.93 1)">I</text><text class="cls-15" transform="matrix(0.25, 0.9, -0.96, 0.27, 432.81, 312.94)">S</text><text class="cls-15" transform="translate(434.32 318.17) rotate(76.74) scale(0.93 1)">M</text><text class="cls-15" transform="translate(436.32 326.87) rotate(78.64) scale(0.93 1)"> </text><text class="cls-15" transform="translate(436.8 329.13) rotate(80.17) scale(0.93 1)">&amp;</text><text class="cls-15" transform="translate(341.64 207.38) rotate(26.31) scale(0.93 1)">D</text><text class="cls-15" transform="translate(348.11 210.58) rotate(28.64) scale(0.93 1)">A</text><text class="cls-15" transform="matrix(0.81, 0.47, -0.5, 0.86, 354.05, 213.85)">I</text><text class="cls-15" transform="matrix(0.79, 0.49, -0.53, 0.85, 356.33, 215.15)">R</text><text class="cls-15" transform="translate(361.29 218.21) rotate(33.63) scale(0.93 1)">Y</text><text class="cls-15" transform="translate(366.29 221.56) rotate(35.04) scale(0.93 1)"> </text><text class="cls-15" transform="matrix(0.75, 0.56, -0.6, 0.8, 368.19, 222.86)">&amp;</text><text class="cls-15" transform="translate(373.58 226.89) rotate(38.06) scale(0.93 1)"> </text><text class="cls-15" transform="matrix(0.72, 0.59, -0.63, 0.77, 375.43, 228.31)">F</text><text class="cls-15" transform="matrix(0.7, 0.62, -0.66, 0.75, 379.59, 231.7)">O</text><text class="cls-15" transform="translate(385.3 236.75) rotate(44.08) scale(0.93 1)">O</text><text class="cls-15" transform="matrix(0.64, 0.68, -0.73, 0.69, 390.77, 242.06)">D</text><text class="cls-15" transform="translate(254.19 192.14) rotate(-3.99) scale(0.93 1)">A</text><text class="cls-15" transform="translate(260.75 191.67) rotate(-1.74) scale(0.93 1)">G</text><text class="cls-15" transform="translate(267.91 191.47) rotate(0.43) scale(0.93 1)">R</text><text class="cls-15" transform="translate(273.89 191.49) rotate(2.69) scale(0.93 1)">O</text><text class="cls-15" transform="translate(281.51 191.88) rotate(4.52) scale(0.93 1)">-</text><text class="cls-15" transform="matrix(0.62, -0.69, 0.74, 0.67, 139.95, 251.31)">M</text><text class="cls-15" transform="translate(145.84 244.78) rotate(-45.47) scale(0.93 1)">A</text><text class="cls-15" transform="matrix(0.68, -0.64, 0.68, 0.73, 150.6, 239.94)">N</text><text class="cls-15" transform="matrix(0.71, -0.61, 0.65, 0.76, 155.9, 234.98)">U</text><text class="cls-15" transform="translate(161.34 230.31) rotate(-38.6) scale(0.93 1)">F</text><text class="cls-15" transform="translate(164.86 227.47) rotate(-36.85) scale(0.93 1)">A</text><text class="cls-15" transform="translate(170.15 223.51) rotate(-34.7) scale(0.93 1)">C</text><text class="cls-15" transform="translate(175.69 219.69) rotate(-32.59) scale(0.93 1)">T</text><text class="cls-15" transform="matrix(0.8, -0.47, 0.51, 0.86, 180.3, 216.72)">U</text><text class="cls-15" transform="matrix(0.82, -0.44, 0.47, 0.88, 186.48, 213.1)">R</text><text class="cls-15" transform="translate(191.73 210.3) rotate(-26.81) scale(0.93 1)">I</text><text class="cls-15" transform="translate(194.06 209.08) rotate(-25.13) scale(0.93 1)">N</text><text class="cls-15" transform="translate(200.66 205.99) rotate(-22.69) scale(0.93 1)">G</text><text class="cls-15" transform="translate(100.35 342.96) rotate(-82.73) scale(0.93 1)">R</text><text class="cls-15" transform="translate(101.11 337.06) rotate(-80.81) scale(0.93 1)">E</text><text class="cls-15" transform="matrix(0.18, -0.91, 0.98, 0.2, 101.96, 331.69)">A</text><text class="cls-15" transform="matrix(0.21, -0.91, 0.97, 0.23, 103.3, 325.06)">L</text><text class="cls-15" transform="matrix(0.23, -0.9, 0.97, 0.25, 104.52, 319.96)"> </text><text class="cls-15" transform="matrix(0.26, -0.9, 0.96, 0.27, 105.09, 317.7)">E</text><text class="cls-15" transform="translate(106.57 312.46) rotate(-72.27) scale(0.93 1)">S</text><text class="cls-15" transform="translate(108.23 307.29) rotate(-70.42) scale(0.93 1)">T</text><text class="cls-15" transform="translate(109.77 302.88) rotate(-68.62) scale(0.93 1)">A</text><text class="cls-15" transform="translate(111.92 297.37) rotate(-66.83) scale(0.93 1)">T</text><text class="cls-15" transform="translate(114.09 292.31) rotate(-64.98) scale(0.93 1)">E</text><text class="cls-15" transform="matrix(0.41, -0.84, 0.9, 0.44, 116.41, 287.38)"> </text><text class="cls-15" transform="translate(117.42 285.28) rotate(-62.14) scale(0.93 1)">&amp;</text><text class="cls-15" transform="translate(405.01 288.19) rotate(62.78) scale(0.93 1)">H</text><text class="cls-15" transform="translate(408.31 294.61) rotate(65.56) scale(0.93 1)">O</text><text class="cls-15" transform="translate(411.45 301.56) rotate(68.01) scale(0.93 1)">S</text><text class="cls-15" transform="translate(413.49 306.6) rotate(70.12) scale(0.93 1)">P</text><text class="cls-15" transform="translate(415.48 312.15) rotate(71.73) scale(0.93 1)">I</text><text class="cls-15" transform="translate(416.32 314.63) rotate(73.25) scale(0.93 1)">T</text><text class="cls-15" transform="translate(417.69 319.09) rotate(75.24) scale(0.93 1)">A</text><text class="cls-15" transform="translate(419.39 325.62) rotate(77.48) scale(0.93 1)">L</text><text class="cls-15" transform="translate(420.51 330.73) rotate(78.95) scale(0.93 1)">I</text><text class="cls-15" transform="matrix(0.15, 0.92, -0.99, 0.17, 421.04, 333.32)">T</text><text class="cls-15" transform="translate(421.99 339.03) rotate(82.72) scale(0.93 1)">Y</text><text class="cls-15" transform="translate(336.48 223) rotate(26.84) scale(0.93 1)">P</text><text class="cls-15" transform="translate(341.73 225.65) rotate(29.04) scale(0.93 1)">R</text><text class="cls-15" transform="matrix(0.79, 0.49, -0.52, 0.85, 346.94, 228.52)">O</text><text class="cls-15" transform="matrix(0.77, 0.52, -0.56, 0.83, 353.42, 232.52)">C</text><text class="cls-15" transform="translate(358.71 236.12) rotate(36.38) scale(0.93 1)">E</text><text class="cls-15" transform="translate(363.1 239.35) rotate(38.4) scale(0.93 1)">S</text><text class="cls-15" transform="translate(367.37 242.73) rotate(40.42) scale(0.93 1)">S</text><text class="cls-15" transform="translate(371.52 246.29) rotate(41.91) scale(0.93 1)">I</text><text class="cls-15" transform="translate(373.49 248.01) rotate(43.75) scale(0.93 1)">N</text><text class="cls-15" transform="matrix(0.64, 0.68, -0.72, 0.69, 378.75, 253.04)">G</text><text class="cls-15" transform="translate(241.84 210.36) rotate(-9.28) scale(0.93 1)">P</text><text class="cls-15" transform="translate(247.65 209.41) rotate(-7.08) scale(0.93 1)">R</text><text class="cls-15" transform="matrix(0.93, -0.07, 0.08, 1, 253.56, 208.65)">O</text><text class="cls-15" transform="translate(261.15 208.06) rotate(-1.97) scale(0.93 1)">C</text><text class="cls-15" transform="translate(267.58 207.85) rotate(0.2) scale(0.93 1)">E</text><text class="cls-15" transform="matrix(0.93, 0.04, -0.04, 1, 273, 207.87)">S</text><text class="cls-15" transform="translate(278.45 208.07) rotate(4.2) scale(0.93 1)">S</text><text class="cls-15" transform="translate(283.88 208.49) rotate(5.69) scale(0.93 1)">I</text><text class="cls-15" transform="translate(286.49 208.71) rotate(7.53) scale(0.93 1)">N</text><text class="cls-15" transform="translate(293.69 209.66) rotate(10.22) scale(0.93 1)">G</text><text class="cls-15" transform="matrix(0.08, -0.93, 1, 0.09, 116.25, 351.19)">C</text><text class="cls-15" transform="translate(116.77 345.06) rotate(-82.43) scale(0.93 1)">O</text><text class="cls-15" transform="translate(117.78 337.5) rotate(-79.65) scale(0.93 1)">N</text><text class="cls-15" transform="translate(119.11 330.34) rotate(-77.27) scale(0.93 1)">S</text><text class="cls-15" transform="translate(120.3 325.04) rotate(-75.22) scale(0.93 1)">T</text><text class="cls-15" transform="matrix(0.27, -0.89, 0.96, 0.29, 121.69, 319.75)">R</text><text class="cls-15" transform="translate(123.41 314.05) rotate(-70.62) scale(0.93 1)">U</text><text class="cls-15" transform="translate(125.79 307.31) rotate(-68.08) scale(0.93 1)">C</text><text class="cls-15" transform="translate(128.31 301.08) rotate(-65.73) scale(0.93 1)">T</text><text class="cls-15" transform="matrix(0.41, -0.84, 0.9, 0.44, 130.6, 296.06)">I</text><text class="cls-15" transform="matrix(0.43, -0.83, 0.89, 0.46, 131.69, 293.7)">O</text><text class="cls-15" transform="translate(135.23 286.96) rotate(-59.52) scale(0.93 1)">N</text><polyline class="cls-16" points="50.16 250.5 50.16 271.81 81.5 311.99"/><text class="cls-2" transform="translate(26.4 36.2)"><tspan class="cls-17">L</tspan><tspan x="7.57" y="0">ehem</tspan><tspan class="cls-18" x="-5.07" y="18.03">I</tspan><tspan class="cls-19" x="-0.96" y="18.03">n</tspan><tspan class="cls-7" x="8.14" y="18.03">t</tspan><tspan x="13.51" y="18.03">e</tspan><tspan class="cls-20" x="21.79" y="18.03">r</tspan><tspan x="27.26" y="18.03">iors</tspan><tspan class="cls-6" x="10.7" y="36.06">L</tspan><tspan class="cls-7" x="18.43" y="36.06">t</tspan><tspan class="cls-8" x="23.8" y="36.06">d</tspan><tspan x="32.95" y="36.06">.</tspan></text><text class="cls-2" transform="translate(24.09 189.14)"><tspan class="cls-3">C<tspan class="cls-4" x="9.47" y="0">anaan</tspan></tspan><tspan class="cls-21" x="-13.15" y="18.03">D</tspan><tspan x="-2.08" y="18.03">e</tspan><tspan class="cls-8" x="6.19" y="18.03">v</tspan><tspan x="13.98" y="18.03">elopers</tspan><tspan class="cls-6" x="13.01" y="36.06">L</tspan><tspan class="cls-7" x="20.74" y="36.06">t</tspan><tspan class="cls-8" x="26.11" y="36.06">d</tspan><tspan x="35.26" y="36.06">.</tspan></text><circle class="cls-16" cx="49.93" cy="200.19" r="49.43" transform="translate(-126.93 93.94) rotate(-45)"/><circle class="cls-16" cx="49.93" cy="49.93" r="49.43" transform="translate(-20.68 49.93) rotate(-45)"/><line class="cls-16" x1="49.93" y1="150.76" x2="49.93" y2="99.37"/><line class="cls-22" x1="153.61" y1="165.4" x2="153.61" y2="206.56"/><text class="cls-2" transform="translate(127.02 101.27)"><tspan class="cls-3">C<tspan class="cls-4" x="9.47" y="0">anaan</tspan></tspan><tspan class="cls-23"><tspan x="0.65" y="18.03">P</tspan><tspan class="cls-4" x="9.36" y="18.03">lastics</tspan></tspan><tspan class="cls-6" x="13.01" y="36.06">L</tspan><tspan class="cls-7" x="20.74" y="36.06">t</tspan><tspan class="cls-8" x="26.11" y="36.06">d</tspan><tspan x="35.26" y="36.06">.</tspan></text><circle class="cls-22" cx="152.91" cy="111.85" r="53.54" transform="translate(14.16 240.85) rotate(-79.1)"/><text class="cls-2" transform="translate(486.52 161.82)"><tspan class="cls-20">R</tspan><tspan class="cls-24" x="8.95" y="0">o</tspan><tspan class="cls-19" x="17.91" y="0">y</tspan><tspan x="25.62" y="0">al</tspan><tspan class="cls-25" x="1.88" y="18.03">T</tspan><tspan x="9.34" y="18.03">ulip</tspan><tspan x="0.05" y="36.06">Ho</tspan><tspan class="cls-7" x="19.89" y="36.06">t</tspan><tspan x="25.26" y="36.06">el</tspan></text><polyline class="cls-26" points="416.16 121.47 416.16 155.18 382.3 203.69"/><text class="cls-2" transform="translate(390.31 58.91)"><tspan class="cls-3">C<tspan class="cls-4" x="9.47" y="0">anaan</tspan></tspan><tspan class="cls-25" x="-4.89" y="18.03">F</tspan><tspan class="cls-4" x="2.41" y="18.03">a</tspan><tspan class="cls-27" x="10.37" y="18.03">c</tspan><tspan class="cls-7" x="17.99" y="18.03">t</tspan><tspan x="23.36" y="18.03">o</tspan><tspan class="cls-20" x="32.43" y="18.03">r</tspan><tspan x="37.9" y="18.03">ies</tspan><tspan class="cls-6" x="13.01" y="36.06">L</tspan><tspan class="cls-7" x="20.74" y="36.06">t</tspan><tspan class="cls-8" x="26.11" y="36.06">d</tspan><tspan x="35.26" y="36.06">.</tspan></text><circle class="cls-26" cx="416.16" cy="69.78" r="51.5"/></g></g></svg>