<svg xmlns="http://www.w3.org/2000/svg" viewBox="0 0 208.07 108.74"><defs><style>.cls-1{fill:#bfa712;}.cls-2{fill:#13110c;}</style></defs><title>royal-tulip-logo</title><g id="Layer_2" data-name="Layer 2"><g id="Layer_1-2" data-name="Layer 1"><path class="cls-1" d="M115.82,2l-9.55,16.29c-3.16-5.36-6.17-10.48-9.45-16a22,22,0,0,1,19-.26"/><path class="cls-1" d="M116.61,43.57h-7.86V65.76H103.6V43.57H95.84a7,7,0,0,1-7.25-7.29q0-11.37,0-22.75c0-5.55,0-5.55-3.34-9.78,3.36-1.56,8.43-.13,10.23,3q10.33,17.88,20.62,35.8c.13.22.23.45.51,1"/><path class="cls-1" d="M111.05,65.43a20.81,20.81,0,0,1,5.17-13.91,35.7,35.7,0,0,1,7-6.24c9-6,14-14,13.67-25,0-1.56,0-3.13,0-4.69,0,0,.07-.08.11-.12,9.79,18.65-.9,46-25.92,50"/><path class="cls-1" d="M101.35,65.44C77.29,61.67,65.1,35.84,75.16,15.05c.06.71.09,1.1.11,1.49.14,3.39,0,6.81.48,10.16,1,7.69,5.67,13.26,11.73,17.5C92.86,48,97.59,52.06,99.81,58.39a57.79,57.79,0,0,1,1.54,7"/><path class="cls-1" d="M127.57,3.53c-3.74,3-3.91,6.7-3.82,10.6.15,7.18,0,14.37,0,21.56a7.62,7.62,0,0,1-3.68,6.86l-5.94-10.21c-1.73-3-3.41-6-5.2-9a2.34,2.34,0,0,1,0-2.8c2.46-4.15,5-8.26,7.1-12.6,2-4.1,5.3-4.81,9.21-4.76.57,0,1.14.15,2.33.32"/><path class="cls-2" d="M0,76.49H8.42a7.61,7.61,0,0,1,5.45,1.89,5.71,5.71,0,0,1,1.56,4.07v.06a5.67,5.67,0,0,1-4.5,5.72L16,95.38H12.11L7.47,88.79H3.32v6.59H0Zm8.17,9.36c2.38,0,3.89-1.24,3.89-3.15v-.06c0-2-1.46-3.13-3.91-3.13H3.32v6.34Z"/><path class="cls-2" d="M21.37,86v-.06a9.67,9.67,0,0,1,9.9-9.76,9.59,9.59,0,0,1,9.85,9.71v.05a9.68,9.68,0,0,1-9.9,9.77A9.59,9.59,0,0,1,21.37,86Zm16.27,0v-.06a6.46,6.46,0,0,0-6.42-6.71,6.38,6.38,0,0,0-6.37,6.66v.05a6.47,6.47,0,0,0,6.42,6.72A6.38,6.38,0,0,0,37.64,86Z"/><path class="cls-2" d="M51.78,87.93l-7.5-11.44h3.91l5.29,8.36,5.34-8.36h3.81l-7.5,11.36v7.53H51.78Z"/><path class="cls-2" d="M72,76.36h3.08l8.31,19H79.87L78,90.82H69l-2,4.56h-3.4Zm4.75,11.52-3.26-7.56-3.24,7.56Z"/><path class="cls-2" d="M89.29,76.49h3.32V92.35h9.93v3H89.29Z"/><path class="cls-2" d="M124.13,79.57h-6V76.49h15.32v3.08h-6V95.38h-3.34Z"/><path class="cls-2" d="M139.37,87.36V76.49h3.32V87.23c0,3.51,1.81,5.39,4.78,5.39s4.75-1.78,4.75-5.26V76.49h3.31V87.2c0,5.64-3.18,8.47-8.12,8.47S139.37,92.84,139.37,87.36Z"/><path class="cls-2" d="M162.8,76.49h3.31V92.35H176v3H162.8Z"/><path class="cls-2" d="M182.39,76.49h3.31V95.38h-3.31Z"/><path class="cls-2" d="M193.45,76.49h7.45c4.39,0,7.17,2.51,7.17,6.31v.06c0,4.23-3.4,6.45-7.55,6.45h-3.75v6.07h-3.32Zm7.18,9.82c2.51,0,4.07-1.4,4.07-3.37v0c0-2.22-1.59-3.38-4.07-3.38h-3.86v6.8Z"/><path class="cls-1" d="M36.68,105.15v0a3.54,3.54,0,0,1,3.6-3.61A3.64,3.64,0,0,1,43,102.61l-.79.91a2.78,2.78,0,0,0-1.95-.87,2.34,2.34,0,0,0-2.3,2.46v0a2.35,2.35,0,0,0,2.3,2.48,2.74,2.74,0,0,0,2-.91l.79.8a3.61,3.61,0,0,1-2.83,1.24A3.52,3.52,0,0,1,36.68,105.15Z"/><path class="cls-1" d="M46.81,101.59H48l3.07,7h-1.3l-.7-1.69h-3.3L45,108.62H43.74Zm1.76,4.26-1.21-2.79-1.19,2.79Z"/><path class="cls-1" d="M52.21,101.64h1.14l3.74,4.83v-4.83h1.2v7h-1l-3.84-5v5H52.21Z"/><path class="cls-1" d="M62.55,101.59h1.14l3.07,7h-1.3l-.7-1.69h-3.3l-.72,1.69H59.49Zm1.76,4.26-1.21-2.79-1.19,2.79Z"/><path class="cls-1" d="M70.29,101.59h1.13l3.07,7H73.2l-.71-1.69h-3.3l-.72,1.69H67.22ZM72,105.85l-1.21-2.79-1.19,2.79Z"/><path class="cls-1" d="M75.69,101.64h1.13l3.74,4.83v-4.83h1.2v7h-1l-3.85-5v5h-1.2Z"/><path class="cls-1" d="M86.55,101.64h1.13l3.74,4.83v-4.83h1.2v7h-1l-3.85-5v5h-1.2Z"/><path class="cls-1" d="M96.89,101.59H98l3.07,7H99.8l-.71-1.69h-3.3l-.71,1.69H93.82Zm1.75,4.26-1.2-2.79-1.2,2.79Z"/><path class="cls-1" d="M102.36,101.64h1.22v7h-1.22Z"/><path class="cls-1" d="M105.45,101.64h3.1a2.82,2.82,0,0,1,2,.7,2.1,2.1,0,0,1,.57,1.5v0a2.09,2.09,0,0,1-1.66,2.12l1.88,2.64h-1.44l-1.71-2.43h-1.54v2.43h-1.22Zm3,3.46c.88,0,1.44-.46,1.44-1.17v0c0-.74-.54-1.15-1.44-1.15h-1.79v2.34Z"/><path class="cls-1" d="M112.34,105.15v0a3.58,3.58,0,0,1,3.66-3.61,3.54,3.54,0,0,1,3.63,3.59v0a3.65,3.65,0,0,1-7.29,0Zm6,0v0a2.39,2.39,0,0,0-2.37-2.48,2.36,2.36,0,0,0-2.36,2.46v0a2.39,2.39,0,0,0,2.38,2.48A2.35,2.35,0,0,0,118.35,105.15Z"/><path class="cls-1" d="M121.12,101.64h3.13a2.52,2.52,0,0,1,1.82.62,1.57,1.57,0,0,1,.47,1.16v0a1.66,1.66,0,0,1-1,1.55,1.71,1.71,0,0,1,1.39,1.69v0c0,1.25-1,1.92-2.58,1.92h-3.23Zm2.88,2.94c.78,0,1.31-.31,1.31-.94v0c0-.55-.44-.89-1.22-.89h-1.77v1.85Zm.36,3c.83,0,1.34-.33,1.34-1v0c0-.58-.47-.93-1.43-.93h-2v1.91Z"/><path class="cls-1" d="M128.38,101.64h1.23v7h-1.23Z"/><path class="cls-1" d="M134.46,101.64h1.22v2.9H139v-2.9h1.23v7H139v-2.94h-3.33v2.94h-1.22Z"/><path class="cls-1" d="M141.72,105.15v0a3.58,3.58,0,0,1,3.66-3.61,3.54,3.54,0,0,1,3.63,3.59v0a3.65,3.65,0,0,1-7.29,0Zm6,0v0a2.39,2.39,0,0,0-2.37-2.48,2.35,2.35,0,0,0-2.35,2.46v0a2.38,2.38,0,0,0,2.37,2.48A2.35,2.35,0,0,0,147.73,105.15Z"/><path class="cls-1" d="M151.84,102.78h-2.21v-1.14h5.66v1.14h-2.21v5.84h-1.24Z"/><path class="cls-1" d="M156.58,101.64h5.18v1.1h-3.95v1.81h3.5v1.1h-3.5v1.87h4v1.1h-5.23Z"/><path class="cls-1" d="M163.26,101.64h1.22v5.86h3.67v1.12h-4.89Z"/></g></g></svg>